<svg width="1200" height="600" viewBox="0 0 1200 600" fill="none" xmlns="http://www.w3.org/2000/svg">
<path d="M765.2 542.4C765.2 542 763.6 541.2 761.2 539.8C761.1 537.2 760.8 533.6 759.6 532.5C759.3 532.2 758.8 532.2 758.2 532.5C758 532 757.8 531.7 757.5 531.5C756.3 530.4 754 532.2 752.1 534.1C750.5 532.9 748.8 531.6 747.1 530.1C748.9 527.3 751.7 522.5 751.3 520C751.2 519.2 750.4 518.8 749.3 518.6C749.1 518.3 748.9 518 748.6 517.8C746.5 516.5 740.8 517.6 737.5 518.4C737.1 517.8 736.8 517.1 736.4 516.4C736.4 513.8 736.1 510.9 735.4 507.9C737.5 505.1 740.7 500 740 497.4C739.7 496.4 738.9 495.9 737.7 495.6C737.4 495.2 737.1 494.9 736.7 494.7C735 493.7 732.3 493.9 730.3 494.2C728.8 491.3 727.4 488.6 725.9 486.1C728.3 484.1 731.6 475.2 729.2 474.2C728.9 474.1 728.5 474 728.1 474.1C727.9 473.5 727.5 473.2 727.2 473.1C725.4 472.3 721.4 474.3 718.9 475.7C716.4 472.4 713.9 469.7 711.5 467.4C711.5 467.4 711.5 467.4 711.5 467.3C712.8 464.5 713.8 458.4 712.6 457.6C712.4 457.4 711.9 457.5 711.2 457.6C711.1 457.1 710.9 456.6 710.6 456.4C709.3 455.6 703.9 458.2 701.4 459.6L701.3 459.5C695.6 455.9 691.1 455 688.8 454.7C685.3 450.2 681.4 445.5 680.6 445.6C680.5 445.6 680.4 445.7 680.3 445.9C679.3 444.9 678.5 444.4 678.2 444.4C677.1 444.7 676.6 448.1 676.5 449.6C676 454.4 676.5 460 679.5 462.1C668.2 471.4 653.1 489.8 647.1 512.2C643.4 526 649.6 534.1 657.4 538.8C653.7 536.9 650.2 534.3 647.8 530.8C644.1 525.6 643.3 519.1 645.3 511.6C651.2 489.5 666.5 471 677.7 461.9L677.1 461.1C665.7 470.4 650.3 489.1 644.3 511.4C642.2 519.3 643.1 526 647 531.5C651.5 537.8 659.2 541.2 664.9 543C670.2 544.6 674.8 545.2 675.9 545.3C678.4 550.5 678.1 553.6 677.5 555.2C676.8 557 675.4 557.5 675.4 557.6L675.6 558.6L678.8 558.2C678.3 558.6 677.8 558.8 677.8 558.8L692.9 556.9L691.3 547.1H697.9C700 551.6 699.8 553.9 699.2 555.1C698.5 556.5 697.1 556.7 697.1 556.7L697.2 557.7L700.9 557.3C700.2 557.8 699.4 557.9 699.4 557.9L715.3 556L714.1 549C714.1 549 716.6 548 719.9 545.7C721.8 545.7 765.1 544 765.2 542.4ZM756.9 532.2C757 532.3 757.2 532.6 757.4 533C756.4 533.7 755.4 534.7 754.5 535.7C754 535.4 753.6 535.1 753.1 534.7C755 532.6 756.5 531.8 756.9 532.2ZM747.9 518.5C744.8 518.5 740.6 519.6 738.7 520.1C738.5 519.8 738.4 519.6 738.2 519.3C741.5 518.6 746 517.7 747.9 518.5ZM736 495.5C734.4 495.5 732.6 495.7 731.3 495.9C731.2 495.7 731.1 495.5 731 495.3C732.6 495.1 734.6 494.9 736 495.5ZM727.1 474.2C727.2 474.2 727.3 474.3 727.4 474.5C725.1 475.1 722 476.8 720.5 477.6C720.3 477.3 720 476.9 719.8 476.6C722.5 475.1 725.9 473.6 727.1 474.2ZM710.4 457.4C710.5 457.5 710.6 457.7 710.7 458C708 458.9 704 461.1 704 461.1C704 461.1 704 461.1 704.1 461.2C703.7 460.9 703.2 460.6 702.8 460.4C706.1 458.7 709.8 457.1 710.4 457.4ZM677.8 455.2C677.4 450.7 678.3 446.3 678.8 445.7C679.1 445.8 679.6 446.3 680.3 447.1C679.3 450.1 678.8 457.7 681.1 461.4C680.9 461.5 680.8 461.7 680.6 461.8C678.7 460.6 678 457.6 677.8 455.2ZM678.7 555.8C679.7 553.3 679.3 549.8 677.3 545.6C678.3 545.7 678.8 545.8 678.8 545.8C681.8 552.1 681.2 555.5 680 557.3L677.6 557.6C678 557 678.4 556.5 678.7 555.8ZM700.3 555.7C701.3 553.8 701 550.9 699.3 547.2H700.7C703.1 552.1 703 554.8 702.1 556.2L699.7 556.5C700 556.3 700.2 556 700.3 555.7Z" fill="#DC3545"/>
<g opacity="0.6">
<path opacity="0.6" d="M675.4 545.6L691.7 547.1L693.3 556.9L674.8 559.8C674.8 559.6 681.3 550.1 675.4 545.6Z" fill="#F2DDA4"/>
<path opacity="0.6" d="M697 546.4L714.1 547.1L715.7 556.9L695.9 558.1C695.9 558 701.4 551.3 697 546.4Z" fill="#F2DDA4"/>
</g>
<path d="M1084.9 540.9C1084.9 540.9 1076.2 464.7 1050.5 423.2C1048.9 419.4 1048.7 411.6 1048.9 406.1C1062.9 404 1065.5 379.6 1055 374.1C1054.9 374 1054.8 373.9 1054.7 373.8C1052.2 371.5 1047.5 369.5 1039.8 373.1C1032.3 376.7 1028.1 381 1027.3 385.9C1026.3 391.9 1030.6 397.6 1034.4 401.2C1036.1 402.9 1038.1 404.1 1040.3 404.7C1040.5 412.8 1039.7 426.1 1032.6 431.9C1031.7 432.6 1030.7 433.4 1029.4 434.3C1018.9 442.2 997.8 458.1 996.2 493.2C994.5 493.9 991.2 495.7 991 498.9C989.8 498.3 987.6 497.4 985.5 497.3L983.5 492.3V496.2L981.3 490.7L980.3 490.9V497.6L965.4 499.3V500.3L970.8 500.9L968.2 501.2L971.7 501.6L966.8 502.3V503.3L971.9 503.9L969.6 504.2L974.3 504.7L970.4 507L970.7 507.9L976.3 507L973.3 508.8L981.5 507.5C983.7 509.7 988.3 514 992.7 514.7C994.4 515.5 996.1 515.9 997.7 515.6C998.5 520.3 999.6 525.4 1001 530.6C1000.1 531.8 995.7 538.3 997.3 543.4C998 545.7 999.8 547.3 1002.7 548.3C1004.7 549 1006.6 549.5 1008.1 550C1010.1 550.6 1012.1 551.2 1012.3 551.4C1012 552.1 1006.2 554 1000.5 555.8L1000.7 556.8H1005.9C1005.1 557.1 1004.3 557.3 1003.4 557.6H1022.5L1021.5 539.8C1022.9 540.3 1024.8 540.9 1026.9 541.5C1034.2 543.8 1047.7 547.1 1060 545.7V558.6L1060.5 559.1H1063.2V559.9H1084.1C1084.1 559.9 1083 559.5 1081.5 558.8L1081.6 558.2C1079.7 557.5 1077.2 556.3 1075.3 555.2C1074.7 554.6 1074.4 554 1074.7 553.6C1075.6 551.4 1090.9 548.9 1084.9 540.9ZM1028.2 386C1028.9 381.4 1033 377.4 1040.2 373.9C1042.9 372.6 1045.3 372 1047.6 372C1049.2 372 1050.7 372.3 1052 373C1049.4 372.6 1046.3 373.1 1042.7 374.8C1022.5 384.4 1031.8 396.7 1037.4 402.1C1037.5 402.2 1037.6 402.2 1037.7 402.3C1036.8 401.7 1035.9 401.1 1035.1 400.3C1031.4 397 1027.3 391.6 1028.2 386ZM1029.9 435.1C1031.1 434.2 1032.2 433.4 1033.1 432.6C1040.4 426.6 1041.4 413.2 1041.2 404.9C1041.3 404.9 1041.4 405 1041.6 405C1042.2 405.3 1042.8 405.5 1043.4 405.7C1043.6 413.8 1042.8 427.6 1035.5 433.6C1027.1 440.5 1000.9 455.7 999.3 495C998.5 495.4 997.8 495.9 997 496.4C997 495.6 997 494.7 997.1 493.9C997.2 493.8 997.3 493.8 997.3 493.8L997.1 493.1C998.7 458.6 1019.6 442.9 1029.9 435.1ZM996.1 494.4C996.1 495.4 996 496.3 996 497.3C994.8 498.4 993.9 499.7 994.1 501.2C994.1 501.2 993 500.6 991.5 500L991.9 499.7C991.6 496.9 994.4 495.2 996.1 494.4ZM989.5 499.4C988.4 499.2 987.2 499.1 986.3 499.5L985.8 498.4C987.1 498.5 988.5 499 989.5 499.4ZM969.9 499.8L980.8 498.6L981.2 498.1V493.5L983.1 498.2L983.4 498.3V499.4L975.2 500.3L969.9 499.8ZM970.6 502.7L975.5 502L980.5 502.6L975.6 503.3L970.6 502.7ZM973 506.6L975.8 504.9L979.2 505.3L978.5 505.7L973 506.6ZM982.6 507.4L983.2 507.3C983.2 507.3 985 509.4 987.6 511.5C985.6 510.2 983.8 508.6 982.6 507.4ZM998.2 543.3C996.6 538.3 1001.8 531.3 1001.9 531.2L1002 530.8C1000.5 525.4 999.4 520.4 998.6 515.5C998.8 515.4 998.9 515.4 999.1 515.3C999.6 515.1 1000 514.7 1000.4 514.3C1001.2 519.9 1002.4 525.8 1004.2 532.2C1004.2 532.2 997 541.8 1001.8 547C999.9 546.2 998.7 544.9 998.2 543.3ZM1003.8 555.9C1011.3 553.5 1013.1 552.7 1013.2 551.6C1016.8 552.7 1016.4 553.4 1008.9 555.9H1003.8ZM1060.9 558.2V545.6C1061.6 545.5 1062.4 545.4 1063.1 545.3V558.2H1060.9Z" fill="#DC3545"/>
<g opacity="0.6">
<path opacity="0.6" d="M994.4 539.5L1022 542.9L1023.6 558.6L996 557.4C996 557.4 1009.2 553.3 1007.3 551.3C1005.4 549.3 994.7 548.2 994.4 539.5Z" fill="#F2DDA4"/>
<path opacity="0.6" d="M1057.6 546.9L1086.7 542.9C1086.7 542.9 1081.2 552.8 1076.5 553.8C1074.7 554.7 1083.1 557.6 1083.9 559.9H1058.7L1057.6 546.9Z" fill="#F2DDA4"/>
</g>
<path d="M95 359.4C93 350.4 92 332.8 91.4 317.4C91.5 317.4 91.6 317.4 91.7 317.4C94.6 317.4 97 315 97 312.1C97 309.2 94.6 306.8 91.7 306.8C91.5 306.8 91.3 306.8 91 306.9C90.7 295.9 90.7 287.8 90.7 287.8C100.3 275.7 96.1 269.7 91.1 266.9C87.3 263.5 81.4 262.7 81.1 262.7L80.8 263.6C84.4 266.2 86.2 268.9 86.3 271.6C86.3 274.9 83.8 277.3 83 277.9L56.5 282.6L49.8 279.3L55.1 267.4C55.1 267.4 53 269 50.7 271.4L53 266.3L52.2 265.7C51.7 266.1 40.4 275.1 41 282.1C41.5 287.9 48.6 290.1 51.3 290.7C51.5 290.8 51.6 290.8 51.8 290.9C50.2 296.4 38 337.2 33.7 345.8C33.3 346.6 32.5 348 31.5 349.9C26.4 359.2 14.4 380.9 7.29998 405C-1.50002 435.2 0.199983 459.1 12.4 476L13.3 475.7L13.1 473.5C13.8 474.7 14.6 475.9 15.4 477L15 473.1L16 475.9L17 475.7L16.7 470.4L19.1 477.1L18.9 472.2L20.7 477.5L21.7 477.3V472.3L23.8 478.6V470.7L26.9 477.5L27.9 477.3C27.9 477.2 27.9 476.1 27.9 474.2L30 478.7C30 478.7 29.9 436.8 34.2 413.6C35.4 426.7 39.4 450 52 477.5C56.1 489 59.9 543.7 52 556.7L52.4 557.5H55.5C55.3 557.8 55.2 558.1 55 558.4H73C73 558.4 71.4 558.1 69.5 557.5H70.4L70.5 556.5C70.4 556.5 66.8 555.8 64 554.3C63.3 553.4 62.9 552.3 63.3 551.1C64.4 547.6 68.3 527.6 70.8 511.4L72.9 557L73.4 557.5H76V558.4H89.3C89.3 558.4 88.2 558 86.8 557.1L86.9 556.6C86.9 556.6 85.9 556.2 84.7 555.4C82.4 553.2 80.2 549.8 80.4 544.5C80.7 534.1 88.9 485 89.4 482L92 486.9L90.9 477.4L98.4 486.9L94.7 477.4L102 483C97.4 477.7 95.1 452.5 95.1 452.5C95.1 452.5 125.6 427.7 95 359.4ZM87.2 271.6C87.2 269 85.7 266.5 83 264.1C83.7 264.3 84.5 264.5 85.3 264.8C84.3 264.6 83.7 264.5 83.7 264.5C95.2 272.7 85.7 279.8 85.7 279.8L84.7 280L83.8 278.5C84.8 277.6 87.2 275.1 87.2 271.6ZM82.9 279L83.7 280.2L59 284.5C59 284.5 60.3 287 59.2 289.2C60 287.1 59 284.5 59 284.5L57.2 283.6V283.5L82.9 279ZM41.9 282.1C41.5 277.2 47.9 270.8 51 268L48.4 273.8C45.9 276.8 43.7 280.3 43.9 283.5C44.1 285.3 44.9 286.8 46.1 287.9C44.1 286.6 42.1 284.7 41.9 282.1ZM12.1 473.9C-5.30002 447.7 1.49998 406.2 32.3 350.4C33.3 348.5 34.1 347.1 34.5 346.3C38.8 337.5 51 296.9 52.6 291.2C53.9 291.6 54.9 291.7 54.9 291.7C54.9 291.7 41.2 338 36.6 347.3C32.2 356.2 -12.1 427.2 11.8 471.4L12.1 473.9ZM15.8 472.4L14.6 469.1L14 463L15.5 467.2L15.8 472.4ZM20.6 474.3L18.7 468.5L18.4 462.7L20.6 469.3V474.3ZM26.8 475.1L23.7 468.4V465.4L26.8 472.1C26.8 473.3 26.8 474.3 26.8 475.1ZM53.2 556.4C60.6 542 56.9 488.5 52.8 477.1C39 447.2 35.6 422.2 34.8 410.1C35.4 407.7 36 405.5 36.7 403.8C36.7 403.8 35.4 436.1 55 478.7C58.8 489.5 62.7 540.4 55.9 556.4H53.2ZM73.9 556.4L71.6 506.2C72.5 499.8 73.1 494.5 73 491.8L75.9 556.4H73.9Z" fill="#DC3545"/>
<path opacity="0.6" d="M68.9 536.5L84 534.1V550.2L93.5 559.2H70.4L68.9 536.5Z" fill="white"/>
<path opacity="0.6" d="M54.1 534.1L68.9 536.5L65.7 552.1L73 558.3L49.1 559.8L54.1 534.1Z" fill="white"/>
<path d="M510.9 551.3C510.4 548.9 507.9 546.6 504.8 544.7C500.9 541.6 495 539.1 492.3 538C491.5 536.6 490.4 533.5 489 526.7C486.1 491.5 508.9 447.9 490.1 418.8C486.5 413.3 482 409.1 477 406C468.2 399.6 454.4 394.3 432.9 394.9C437.4 389.1 448.8 375.5 457.8 374.5C470.7 373.1 474.5 380.2 477.6 385.8C478.9 388.1 480.1 390.2 481.7 391.4C479.4 393.8 478.7 396.7 480.1 398.4C480.8 399.2 481.7 399.5 482.9 399.5C484.5 399.5 486.4 398.7 488.1 397.3C491 394.8 492 391.4 490.4 389.5C489.6 388.6 488.3 388.2 486.8 388.4C485.3 388.6 483.8 389.4 482.4 390.5C480.9 389.4 479.7 387.4 478.5 385.1C475.4 379.5 471.2 371.8 457.7 373.3C447.9 374.4 435.8 389.2 431.6 394.7C427.9 394.8 423.9 395.2 419.7 395.7C418.9 393.3 416.8 387.3 413.6 380.8C409.7 373 403.3 362.8 394.9 358.6C390.1 356.2 385.1 356 380.1 357.9C374.3 359.6 370.8 364.5 368.7 368.6C368 367.8 367.2 367.3 366.3 367.2C365.1 367.1 363.9 367.8 363 369C362.1 370.2 361.6 371.8 361.4 373.6C361.3 375.4 361.6 377.1 362.2 378.4C362.9 379.8 364 380.6 365.2 380.7C365.3 380.7 365.4 380.7 365.4 380.7C366.5 380.7 367.6 380.1 368.5 378.9C369.4 377.7 369.9 376.1 370.1 374.3C370.2 372.6 369.9 370.9 369.3 369.6C371.2 365.5 374.6 360.4 380.3 358.8C385.1 357 389.8 357.2 394.4 359.5C408.2 366.4 416.7 390 418.7 395.9C417.2 396.1 415.6 396.3 414.1 396.6V397.1L414 396.6C401.5 398.6 393.1 408.1 388.3 415.7C382.8 424.3 379 435.2 378 444.8C376.4 461 393.3 533.5 395.2 541.6C374.6 541.2 368.2 557.2 368.2 557.3L368.7 558L371.8 557.9C371.5 558.5 371.4 558.8 371.4 558.8L430.7 556.4L430.9 548.4C433.6 549.4 443.5 548 448.5 547.2L449.4 555.1L449.9 555.5L452.4 555.3L452.5 556.3L510.9 551.3ZM461.7 399.4C451.1 396.5 440 396.3 431.4 396.8C431.6 396.5 431.8 396.2 432.1 395.8C444.3 395.5 454 396.9 461.7 399.4ZM369.4 557.1C370.9 554.1 377.5 542.7 394.3 542.7C394.8 542.7 395.3 542.7 395.8 542.7L396.3 542.1C396.1 541.3 377.3 461.6 379 445C379.9 435.6 383.7 424.9 389.1 416.3C393.8 408.9 402 399.6 414.1 397.7C415.7 397.4 417.3 397.2 418.9 397C419 397.2 419 397.3 419 397.3L420 397C420 397 420 396.9 419.9 396.8C423.7 396.3 427.3 396 430.7 395.9C430.3 396.4 430.1 396.8 430 396.9C423.8 397.3 419 398.1 416.7 398.5C394.8 402 382.8 429.3 381.1 446.2C379.4 463.1 398.4 543.5 398.4 543.5C382 542.9 374.6 552.7 372.2 557L369.4 557.1ZM450.2 554.6L449.3 547.2C450.5 547 451.3 546.9 451.3 546.9L452.2 554.5L450.2 554.6Z" fill="#DC3545"/>
<g opacity="0.6">
<path opacity="0.6" d="M392.4 536.7L432 548.7V558.6L365.1 559.5C365.1 559.5 372 536.9 392 540.7L392.4 536.7Z" fill="#F2DDA4"/>
<path opacity="0.6" d="M445.8 558.1L512.7 553.4C512.7 553.4 508 537.6 492.2 536.1L492 530.5L445.9 548V558.1H445.8Z" fill="#F2DDA4"/>
</g>
<path d="M1180.4 380.6L1197.1 353.9L1193.5 354.9L1194.8 352.9L1194.2 352.2L1174 358C1173.4 357.4 1172.7 357 1172 356.7C1171.5 356.3 1171.1 355.9 1170.6 355.5C1166.4 352.8 1161.3 354.6 1157.2 356C1155.8 356.5 1154.4 357 1153.2 357.2V357.1L1132.9 355.5L1132.4 356.2L1140.9 373C1138.3 377.4 1135.3 382.6 1131.9 388.5C1123.5 403.2 1113.2 421.1 1108.5 424.1C1106.1 418.9 1101.1 404.2 1105.6 381.3C1107.2 373.2 1107 365.5 1105.8 358.8L1118.9 343.7L1115.4 344L1116.5 342.7L1116.1 341.9L1099.7 343.2C1097.7 340.3 1095.5 338.1 1093.1 336.7C1092.5 336.2 1091.8 335.7 1091.2 335.3C1087.1 332.7 1082.7 332.9 1079 335.7C1077.2 337.6 1075.5 339.5 1074 341.5L1074.1 341.2L1058.8 335.6L1058.2 336.3L1065.6 354.6L1066.5 354.3C1061.5 365.7 1060.2 378.5 1062.7 392.5C1066 410.5 1074.8 426.7 1081.3 437.5C1079.1 446.3 1075.6 456.6 1072.7 457.5C1072.6 457.3 1072.5 457.2 1072.4 457C1066.9 445.4 1070.7 426.9 1064.5 423.1L1064.8 424.8C1064.2 423.3 1063.4 422.1 1062.2 421.4L1061.4 421.9L1062.7 430L1041.4 435.7V436.7L1044.7 437.4L1044.1 437.6L1054.1 439.6L1061.3 438.6C1061.6 444.3 1063.1 462.7 1068.6 467.1C1069.4 467.7 1070.3 468.1 1071.3 468.1C1071.4 468.1 1071.5 468.1 1071.6 468.1C1072.5 468.8 1073.6 469.1 1074.7 468.8C1081.2 467.4 1085.9 458.4 1088.1 453.2C1093.7 473.1 1093.8 502.7 1093.9 517.9C1093.9 520.8 1093.9 523.1 1094 524.7C1094.3 537.1 1080.6 549.8 1080.5 549.9L1080.8 550.8C1082 550.9 1083.7 550.4 1085.5 549.6C1084.3 550.8 1083.5 551.6 1083.5 551.6C1086.8 551.8 1093.3 547.9 1097.4 545.2C1096.6 548.1 1095.1 551.5 1094.3 553.1L1095 553.7L1099 551.1C1098.2 553.1 1097.5 554.6 1097.5 554.6L1108.3 547.4L1118.2 556.9L1119 556.5V555.7L1121.2 557.9L1120.6 546.7L1131.4 557L1132.2 556.4C1132.2 556.4 1132 556 1131.8 555.4L1134.5 557.9C1134.5 557.9 1128.1 543.9 1126.8 518.4C1126 502.5 1127.9 483.4 1131.6 468.2L1142.5 477.7H1143.2C1143.4 477.5 1143.5 477.3 1143.5 477L1145.5 478.7C1147.3 476.7 1141.3 469.8 1141.3 469.8C1142.3 464.6 1139.3 460.7 1139.3 460.7C1144.7 462.1 1165 456.7 1167.3 452.7C1169.5 448.8 1161.3 424.9 1160.8 423.5C1171 411.4 1180.4 397 1180.4 380.6ZM1140.7 445.6C1143.4 441.9 1148.2 437.1 1153.5 431.5C1155.3 435.8 1158.2 443.4 1157.9 447.5C1157.6 451.4 1144.6 452.8 1136.5 453.2C1137.8 450.2 1139.2 447.6 1140.7 445.6ZM1135 457.1L1132.6 464.8C1133.3 462.1 1134.1 459.5 1135 457.1ZM1136.1 454.2C1143.1 453.9 1158.5 452.7 1158.9 447.5C1159.3 443.1 1156.1 434.9 1154.3 430.6C1154.6 430.2 1155 429.9 1155.3 429.5C1155.8 430.5 1161.5 443.1 1161.1 448.8C1160.6 454.6 1137.5 455.1 1135.7 455.1C1135.9 454.9 1136 454.5 1136.1 454.2ZM1192.1 355.3L1175.8 359.9C1175.5 359.4 1175.2 359 1174.8 358.7L1193.2 353.4L1192.1 355.3ZM1157.6 356.9C1161.4 355.5 1165.8 354 1169.4 355.9C1164.7 355.4 1159.5 358.4 1156 359L1152.4 358.7C1152.8 358.4 1153.1 358.2 1153.4 358.2C1154.6 358 1156.1 357.5 1157.6 356.9ZM1133.8 356.6L1151.7 358C1151.5 358.2 1151.2 358.4 1151 358.6L1135.5 357.3L1142.3 370.8C1142 371.2 1141.8 371.6 1141.5 372.1L1133.8 356.6ZM1132.9 389C1136.3 383 1139.8 376.9 1143 371.8L1144.3 374.4C1132.1 394.7 1115.1 427.7 1109.7 426.3C1109.7 426.3 1109.4 425.8 1109 425C1113.7 422.1 1121.8 408.5 1132.9 389ZM1115.1 342.9L1114.1 344.1L1101 345.1C1100.8 344.8 1100.6 344.4 1100.4 344.1L1115.1 342.9ZM1079.7 336.4C1082.7 334.1 1086 333.8 1089.3 335.3C1086.9 335 1084.4 335.6 1082.1 337.3C1080.3 339.2 1078.6 341.2 1077.1 343.1L1074.7 342.2C1076.2 340.2 1077.9 338.3 1079.7 336.4ZM1059.6 336.9L1061.5 337.6L1067.4 352.2C1067.1 352.8 1066.8 353.4 1066.5 354.1L1059.6 336.9ZM1063.7 392.2C1061.1 378 1062.6 365 1067.9 353.5L1069.2 356.7C1057.3 385.3 1071.4 415.9 1082 434.4C1081.9 434.9 1081.7 435.5 1081.6 436C1075.2 425.2 1066.9 409.5 1063.7 392.2ZM1082.2 437.8L1082.6 437.6C1082.5 437.5 1082.4 437.3 1082.4 437.2C1082.5 436.6 1082.7 436.1 1082.8 435.6C1083.4 436.6 1083.9 437.5 1084.5 438.4C1082.4 446.6 1077.5 463.5 1073.3 458.1C1077 456.4 1080.5 444.7 1082.2 437.8ZM1043.9 435.8L1063.5 430.6L1063.9 430L1062.7 422.8C1064.2 424.5 1064.9 427.7 1065.3 431.5L1047 436.4L1043.9 435.8ZM1062.5 438.1L1064.5 437.8C1064.5 437.8 1065.3 459.9 1070.7 466.6C1070.3 466.5 1069.8 466.3 1069.4 466C1064.2 461.9 1062.8 443.6 1062.5 438.1ZM1082.4 549.3C1085.7 546 1095.5 535.3 1095.2 524.3C1095.2 522.6 1095.1 520.4 1095.1 517.5C1095 502 1094.9 471.4 1088.9 451.3C1089.5 449.9 1089.8 449 1089.8 449L1089.5 448C1098.4 470.9 1097.1 514.1 1097.4 525.6C1097.6 534.1 1091.5 542.6 1087.3 547.4C1085.5 548.3 1083.8 549 1082.4 549.3ZM1096.2 551.5C1097 549.6 1098.3 546.5 1098.9 543.9C1100.4 542.9 1101.4 542.2 1101.4 542.2C1101.7 543.6 1100.8 546.5 1099.9 549L1096.2 551.5ZM1118.1 555L1109.3 546.5L1109.7 546.2L1118.1 554.3V555ZM1130.7 554.3L1120.7 544.8V544.2L1130.4 553.4C1130.5 553.7 1130.6 554 1130.7 554.3ZM1142.9 476.1L1132.1 466.7C1132.1 466.6 1132.1 466.5 1132.2 466.5L1143 475.9C1142.9 475.9 1142.9 476 1142.9 476.1Z" fill="#DC3545"/>
<g opacity="0.6">
<path opacity="0.6" d="M1120.4 548.4L1135.5 559C1132.8 556.3 1128.8 532.5 1128.8 532.5L1119.4 533.1V533H1108H1107L1099.6 533.2H1091.2L1077.6 553.6L1095.2 547.3L1092.1 557.1L1108 547.9V547.2L1121.1 559L1120.4 548.4Z" fill="#F2DDA4"/>
</g>
<path d="M225.3 446C225.3 446 223.7 444.2 221.1 442.6C217.8 439.9 210.6 435.2 203.4 439.5C198.5 442.4 200.9 450.6 203.5 459.3C206.1 468.2 208.8 477.3 203.4 480.4C202.2 481.1 200.9 481.1 199.5 480.6C199 480.4 198.4 480.1 197.9 479.8C188.5 471.4 178.8 448.1 178.2 446.8C174.3 435.3 171.1 427.6 171.1 427.6L177.8 422.9C177 423.1 176 422.9 174.8 422.3L175.4 421.9L175 421C174.1 421.2 172.9 420.8 171.4 420C168.7 417.6 165.6 413.7 162.9 408.2C160.8 404 156.7 400.1 151.8 396.6C143.9 390.3 133.3 385.2 126.6 382L126 381.7C117.8 377.7 103.6 379.8 98.1 383.1C96.4 384.1 95.5 385.2 95.4 386.4C95.3 388.9 95.3 389.2 96.4 389.6C97.1 389.8 98.5 390.2 101.3 393.4C106.2 399 110.9 425.9 118.1 466.7L119.2 473.2C119.4 474.6 119.7 476 119.9 477.3C120 477.9 120.1 478.5 120.2 479.1C119.3 481.8 118.2 484.4 116.7 486.8C115.8 488.2 114.7 489.5 113.5 490.7C112.2 491.9 110.9 492.9 109.4 493.7C106.4 495.4 103.1 496.3 99.7 496.8C98 497.1 96.3 497.2 94.6 497.4C92.9 497.6 91.1 497.6 89.4 497.9C87.7 498.2 85.9 498.7 84.4 499.7C82.9 500.6 81.6 502.1 81 503.8C80.4 505.5 80.3 507.3 80.6 509.1C80.8 510.9 81.3 512.6 82.1 514.2H83C83.4 513.4 83.8 512.7 84.3 512C84.8 513.9 85.4 515.2 85.4 515.2C87.9 509.8 91.3 508.5 94.7 508.9C95.8 509.3 96.9 509.7 98 510.3L100.8 511.7C101.3 511.9 101.8 512.1 102.3 512.3C102.8 512.5 103.4 512.7 104 512.7C104.1 512.7 104.2 512.7 104.3 512.7C105.3 513.1 106.1 513.4 106.7 513.4C113.3 512.8 118.7 510.8 123 507.9C119.3 543.5 78.6 541.8 78.2 541.8L78 542.8C78.1 542.8 80.4 543.7 84.3 544.9C101 550.5 173.7 572.5 187.8 541.5C193.2 529.7 193 513 190.4 495.9C193 497.6 196 499.1 199.3 499.9C203.9 501.7 209.4 502.4 215.4 500.4C232.5 494.7 216 462.5 214.7 451.8C213.8 441.3 225.3 446 225.3 446ZM203.9 481.2C210 477.8 207.2 468.2 204.4 459C201.9 450.7 199.6 442.8 203.9 440.3C207.8 438 211.7 438.5 214.9 439.9C212.2 439.4 209.3 439.6 206.3 441.3C196.8 446.9 217.4 476 206.3 482.2C204.5 483.2 202.6 483 200.7 481.9C201.9 482 203 481.8 203.9 481.2ZM96.5 388.7C96.4 388.5 96.4 387.7 96.5 386.6C96.5 385.8 97.3 384.9 98.7 384.1C103.8 381 116.8 379.1 124.8 382.4C114.3 379.9 98.9 383.7 98.7 388C98.7 388.7 98.7 389.3 98.7 389.6C97.8 389 97.2 388.9 96.8 388.7C96.7 388.7 96.5 388.7 96.5 388.7ZM119.2 466.6C111.7 424.2 107.2 398.7 102.1 392.8C101.5 392.1 100.9 391.5 100.4 391.1C101.3 391.6 102.6 392.5 104.4 394.6C109.5 400.4 114.2 427.8 122.1 472.1C121.8 473.8 121.5 475.5 121 477.1C120.8 475.8 120.5 474.4 120.3 473.1L119.2 466.6ZM82.9 513C82.4 511.8 82 510.4 81.8 509.2C81.5 507.5 81.6 505.8 82.1 504.3C82.6 502.7 83.7 501.5 85.1 500.6C86.5 499.7 88.2 499.2 89.8 498.9C91.4 498.6 93.2 498.6 94.9 498.4C96.7 498.3 98.4 498.1 100.1 497.8C103.5 497.2 107 496.3 110 494.5C111.5 493.7 112.9 492.6 114.2 491.4C115.5 490.1 116.6 488.8 117.5 487.3C118 486.5 118.4 485.8 118.8 485C119.2 484.2 119.6 483.4 119.9 482.6C120.2 481.9 120.4 481.2 120.7 480.4C120.8 481 120.9 481.6 121 482.3L122 482.1C121.8 480.8 121.6 479.6 121.3 478.3C121.4 478.1 121.4 477.9 121.5 477.7C121.9 476.2 122.2 474.8 122.4 473.3C122.8 475.4 123.2 477.6 123.5 479.8C118.7 495.8 107.9 498.6 95.1 499.4C84.2 500.1 83.4 506.4 84.2 510.9C83.7 511.6 83.3 512.3 82.9 513ZM124.4 507.3C125.3 506.7 126.1 506 126.8 505.3C126 539.7 94.3 543.5 84.2 543.8C83.1 543.5 82.2 543.1 81.4 542.9C91.2 542.5 121.6 538.8 124.4 507.3Z" fill="#DC3545"/>
<g opacity="0.6">
<path opacity="0.6" d="M102 398.5L122.9 379.4L100.3 369.3C100.3 369.3 110.3 353.2 101.8 350.7C93.3 348.2 81.3 377.5 81.3 377.5L102 398.5Z" fill="#F2DDA4"/>
</g>
<path d="M422.5 528C422.5 527.6 422.2 527.5 421.9 527.3C421.4 527.1 420.8 527 420.1 526.9C412.5 524.5 386 514.8 379 510.9C378.4 509.9 377.5 507.9 376.4 505.2C377.6 504.7 379.3 503.9 381.1 503C385.3 501.5 388.9 499.8 389.1 498.5C389.1 498.5 388.4 498.4 387.3 498.2C387.4 498 387.5 497.8 387.5 497.5L387 497C386.9 497 377.9 496 373 492.9C372.8 492.7 372.5 492.4 372.3 492.2C371.3 487.2 370.8 481.8 371.7 476.8C374.1 462.8 372.5 431.8 372.5 431.8H380.4C380.4 431.8 373.1 418 370.9 409C369.4 403 367.5 380.5 353.4 370C348.2 365.4 341.3 362.5 331.8 363C326 363.3 320.3 364.8 315 367.4C307.9 370.8 297.3 376.5 297.2 376.5L296.9 376.9C296.9 377.6 292.6 449.3 303.7 488.1V488.7C303.7 490.3 303.7 492.2 303.6 494.2C302.7 495.5 294.7 506.7 283 506.8L282.8 507.8C283.2 507.9 290.7 510.6 296.7 510.6C297.4 510.6 298 510.6 298.6 510.5C298.7 510.5 298.9 510.5 299 510.5C296.4 514.7 292.2 518.2 285.8 520.1C267.1 525.5 258 533.2 257.9 533.3L258.3 534.2L262.6 533.2C261.1 534.2 260.4 534.8 260.4 534.8L313.6 522C306 529.2 286.6 548.1 285.7 554.6L286.4 555.1C286.5 555.1 287.4 554.5 289.1 553.7C288.7 554.5 288.5 555.2 288.4 555.8C288.4 555.8 325.1 536.2 332.7 534.9C339.9 533.6 351 525.7 353.5 519.4C357.2 522.3 365.2 527.9 374.9 530.3C379.2 531.6 383.8 532.3 388.6 531.9C399.2 530.9 415.9 527.7 422.2 528.5C422.1 528.5 422 528.4 421.9 528.4L422.5 528ZM386.1 498.1C385 497.9 383.6 497.6 382.2 497.3C383.9 497.7 385.4 497.9 386.2 498C386.2 498 386.1 498 386.1 498.1ZM297.9 377.2C299.5 376.3 308.9 371.3 315.4 368.2C320.6 365.6 326.1 364.1 331.8 363.9C335.9 363.7 339.5 364.2 342.7 365.2C340.1 364.6 337.2 364.4 334 364.5C328.2 364.8 322.6 366.3 317.4 368.9C310.2 372.3 299.6 378 299.6 378C299.6 378 295.2 449.9 306.4 489.1C306.4 491.1 306.4 493.8 306.2 496.7C305.6 497.3 304.9 498 304.2 498.8C304.7 495 304.7 491.4 304.7 488.7V488.1V488C294 450.4 297.6 382.1 297.9 377.2ZM303.5 496C303.4 497.3 303.2 498.6 303 499.9C299.2 503.4 293.7 507.2 287.6 508.2C286.8 508 286.1 507.8 285.5 507.6C294.5 506.3 301 499.1 303.5 496ZM260.5 532.7C264 530.2 272.5 525 286.1 521.1C293.1 519.1 297.5 515.2 300.2 510.7C300.9 510.8 301.6 510.9 302.3 510.9C299.7 515.6 295.3 519.6 288.1 521.7C277.1 524.9 269.5 528.8 265.1 531.5L260.5 532.7ZM287.1 553.7C289.8 546.2 309.7 527.1 315.7 521.5L319.3 520.6C319.3 520.6 296.5 541.6 290.2 552C288.8 552.8 287.8 553.4 287.1 553.7ZM354 518.4C354 518.4 354 518.3 354 518.4C354 518.3 354.4 518.7 355.2 519.3C354.7 519 354.3 518.7 354 518.4Z" fill="#DC3545"/>
<g opacity="0.6">
<path opacity="0.6" d="M323 539.1C323 539.1 315.1 527.9 305.2 527.1L286.1 542.3C286.1 542.3 276 535.2 274 541C272 546.8 287 558.7 287 558.7L323 539.1Z" fill="#F2DDA4"/>
</g>
<path d="M277.8 483.7C266 456.8 260.9 446.6 261.1 437.1C261.3 429 262.3 402.2 262.6 394.4C270.2 391.7 275.2 385.2 266.7 376.1C265.6 374.9 264.5 374.1 263.3 373.5C258.9 369.6 253.4 369.5 248.3 373.4C243.3 377.3 240.5 383.7 242.5 386.9C245.8 392.4 249.7 394.6 252.5 394.9C252.7 395 252.9 395.1 253.1 395.2C253.4 400.8 254.9 439.4 245.1 446.1C244.5 446.5 243.9 446.7 243.3 446.6C237 438.4 234.5 405.2 233.9 397.5C234.8 396.7 235.5 395.8 236 394.6C238.5 388.2 237.2 380.3 231.4 377.4C229.6 375.6 227.1 374.6 224.2 374.5C218.6 374.3 213.4 376.3 210.7 379.9C208.7 382.5 208.2 385.6 209.2 388.7C211.6 396.6 217.2 398.5 217.4 398.6H217.5C217.6 398.6 218.3 398.8 219.3 398.9C219.9 399.3 220.4 399.4 220.4 399.4C220.4 399.4 222.6 399.9 225.3 399.9C225.8 406.5 227.5 437.6 220.7 450.6C219.7 452.6 218.3 454.9 216.7 457.7C206.8 474.9 188.4 506.9 206.7 525.8C210.8 530.1 215.6 533.5 220.9 535.9L221.1 535.4C239.8 545.5 260.2 539.4 266.8 535.4C271.8 532.4 279.3 523.6 281.6 510.9L284.3 513.9C287.6 496.8 277.8 483.7 277.8 483.7ZM243.4 386.3C241.7 383.6 244.4 377.7 248.9 374.2C250.3 373.1 252.9 371.5 256 371.5C257.2 371.5 258.5 371.8 259.8 372.4C250.9 371.3 242.7 383.4 245.6 387.9C246.8 390 248.1 391.6 249.4 392.8C247.6 391.7 245.4 389.6 243.4 386.3ZM210.2 388.3C209.3 385.5 209.8 382.7 211.6 380.4C214.2 377.1 219 375.1 224.3 375.4C225.8 375.5 227.1 375.8 228.3 376.3C227.9 376.2 227.5 376.2 227 376.2C217.5 375.8 210 382.1 212.4 389.8C213.5 393.5 215.4 395.8 217 397.3C215.5 396.4 211.9 393.9 210.2 388.3ZM223.6 452.1C215.8 467 188.7 505.2 209.6 526.7C211.3 528.4 213 529.9 214.8 531.3C212.1 529.5 209.7 527.4 207.4 525C189.5 506.6 207 476.2 217.5 458.1C219.1 455.4 220.4 453 221.5 451C228.5 437.6 226.8 406.7 226.3 399.8C227.1 399.8 227.8 399.7 228.6 399.6C229.1 410.3 229.9 440 223.6 452.1ZM248.1 447.7C246.7 448.6 245.4 448.5 244.2 447.4C244.7 447.3 245.2 447.1 245.6 446.8C255.8 439.9 254.4 402.5 254.1 395.4C254.9 395.6 255.6 395.7 256.2 395.6C256.3 395.7 259 440.3 248.1 447.7Z" fill="#DC3545"/>
<g opacity="0.6">
<path opacity="0.6" d="M239.4 542L263.2 537.4C263.2 537.4 260.7 549.6 258.3 550.6C258.3 550.6 264.3 555.1 264.5 557.9L240 559.2L239.4 542Z" fill="#F2DDA4"/>
<path opacity="0.6" d="M219.1 537.4L240.7 541.1C240.7 541.1 239.2 550.3 237.8 552.4C237.8 552.4 243.3 556.3 243.3 559.3H219.4L219.1 537.4Z" fill="#F2DDA4"/>
</g>
<path d="M928.1 507.8L924.4 507.3L925.7 506.7L925.6 505.8H925.5V505.7L925.3 505.8L922.6 505.4C927.7 500.9 941.5 486.7 928 474.1C927.5 473.7 926.9 473.3 926.3 472.9C925.8 472.4 925.2 471.9 924.7 471.5C923.7 470.8 922.6 470.2 921.5 469.7C920.5 469.2 919.5 468.8 918.5 468.5C916.9 458.6 912.2 449.8 903.2 444.5L913.3 432.3L896.3 406.1L895.8 406.9L894.2 404.5H893.4L884.2 418.7L884.5 419.5L887.3 420.1L887.2 420.3L891 421.1L896 418.4L897.2 420.9L880.5 437.2C842.3 431.9 795.5 436.9 778.3 439.6L774.3 428.4H780.6L780.5 430.2L780.8 430.7L783.7 431.7L783.9 431.6L786.3 432.4L788.2 427.2L786 425.6L771.8 415.5H771.3L748.7 427.2L748.5 427.9L758.2 446.1C748.3 451.4 742.1 459.3 740 469.6C739.9 470.2 739.8 470.7 739.7 471.3C737.8 472.3 728 478.1 725.6 486.2C724.6 489.6 725 493 726.9 496.3C730.1 500.3 737.6 503.6 739.6 504.4C739.2 505.7 738.3 509.6 740.9 512.2L735.3 519.3L736 520L743.6 514.1L738.2 520.9L750.1 511.6C750.5 512.1 750.8 512.6 751.2 513C752.7 514.8 756.1 516.4 760.7 517.7C764.1 518.9 768.4 519.9 773.5 520.7C773.6 523.5 774.3 530.8 778.8 535.4C780.9 537.6 783.7 538.8 786.9 539.1C787.3 539.2 787.7 539.3 788.1 539.4C787.8 542.3 786.2 552.1 781 554.2L781.2 555.2H784.9C784.5 555.4 784.2 555.6 783.8 555.8H798.8V523.5C813.7 524.5 830.3 524.9 845.8 524.9C846.7 531.4 849.5 540.6 857.9 542.1C858.5 542.4 859.2 542.6 859.9 542.8C859.5 545.9 858 555.3 852.8 557.4L853 558.4H857C856.6 558.7 856.1 559 855.6 559.2H870.6V524.6C883.7 524.1 893.9 523.3 898.5 522.3C902.9 521.4 907.4 516.8 911.1 510.3L920.9 517.6L921.3 517.7L922.2 517.6L923.8 518.8L929.7 518L922.4 510.5L928.1 507.8ZM887.9 419.2L885.5 418.7L893.9 405.8L895.3 407.9L887.9 419.2ZM781.5 428.4H783.6L783.5 430.6L781.5 429.9V428.4ZM727.6 495.8C725.9 492.8 725.5 489.6 726.4 486.5C728.5 479.5 736.6 474.2 739.4 472.5C739.3 473.3 739.2 474.1 739.2 475C733.7 478.8 724 487.3 729.8 497.4C730.3 498 730.8 498.5 731.4 499.1C729.9 498 728.6 496.9 727.6 495.8ZM738.6 516.6L741.9 512.4L741.8 511.7C739 509.5 740.2 505.4 740.5 504.5C741.8 505.1 742.6 505.4 742.6 505.4C742.6 505.4 740.8 510 743.4 512.8L738.6 516.6ZM734.7 495.7C733 494.2 731.9 492.5 732 490.7C732.4 486.7 736.3 483.8 739.2 482.2C739.8 488.7 741.6 495 743.8 500.4C741.3 499.4 737.6 497.7 734.7 495.7ZM745.9 502.1L745.4 501.2L745.1 501C742.7 495.4 740.7 488.7 740.2 481.8C741.2 481.3 741.9 481 742.1 480.9C742.4 488.7 744.6 496.4 747.3 502.7C747.1 502.6 746.6 502.4 745.9 502.1ZM751.8 512.4C751.5 512 751.1 511.5 750.7 511L751.4 510.4C752.2 511.7 753 512.9 753.8 513.9C753.9 514 754 514.2 754.2 514.3C753.2 513.7 752.3 513.1 751.8 512.4ZM742.5 472.8C742.3 472.9 741.5 473.3 740.4 474L740.5 471.5H740.4C740.5 470.9 740.6 470.3 740.7 469.7C742.8 459.7 748.7 452.1 758.4 446.9L759.2 448.4C748.8 454.6 744 463.5 742.5 472.8ZM761.3 447.4C761 447.6 760.6 447.8 760.3 447.9L749.6 427.8L771.5 416.5L773.1 417.6L751.5 428.8L761.3 447.4ZM779.3 534.7C775.2 530.5 774.5 523.7 774.3 520.9C775 521 775.8 521.1 776.6 521.3C777.1 526.1 778.7 533.7 783.6 537.5C782 536.9 780.5 535.9 779.3 534.7ZM786 554.2H782.9C787.3 550.8 788.6 542.5 788.9 539.7C789.6 539.8 790.3 539.9 791.1 539.8C791.1 539.8 790.3 549.8 786 554.2ZM846.6 524.9C847.2 524.9 847.8 524.9 848.5 524.9C849 529.4 850.4 536 854.5 539.9C849.3 536.9 847.3 530.1 846.6 524.9ZM857.9 557.2H854.6C858.9 553.9 860.3 545.8 860.6 542.9C861.3 543 862 543.1 862.8 543C862.9 543 862.2 552.7 857.9 557.2ZM879.2 438.4C841.1 433.9 795.6 438.8 779 441.6L778.6 440.5C795.8 437.8 841.8 432.9 879.6 438L879.2 438.4ZM883.2 439C882.3 438.9 881.4 438.8 880.5 438.6L898.2 421.4L898.3 420.8L896.9 417.9L897.9 417.3L900.3 422.3L883.2 439ZM921.5 470C922.6 470.5 923.6 471.1 924.6 471.8C924.6 471.8 924.6 471.8 924.7 471.9C922.8 470.9 920.8 470.2 918.8 469.6C918.8 469.4 918.7 469.1 918.7 468.9C919.6 469.2 920.6 469.6 921.5 470ZM919.3 476.2C919.8 476.7 920.3 477.2 920.8 477.8C922.6 480 923.7 482.8 923.7 485.7C923.7 488.5 922.7 491.3 921.4 493.9C920.4 495.1 919 496.1 917.6 497C917.1 497.3 916.6 497.7 916.1 498C918.2 491.1 919.5 483.6 919.3 476.2ZM914.5 502.4C914.9 501.5 915.2 500.5 915.5 499.5C916.4 499 917.2 498.4 918 497.9C919.4 497 920.8 496 921.9 494.6C923.2 491.9 924.2 489 924.2 486C924.2 483 923 480 921.1 477.8C920.5 477.2 919.9 476.6 919.2 476C919.2 475.8 919.2 475.7 919.2 475.5C924.8 479.2 929.4 485.5 924.1 495.7C922.9 497.5 918.5 500.2 914.5 502.4ZM921 506.8C921 506.8 921.4 506.5 921.9 506L923.9 506.3L922.4 507L921 506.8Z" fill="#DC3545"/>
<g opacity="0.6">
<path opacity="0.6" d="M783.4 539.8L799.2 539.5L798.6 555.9H779.3C779.3 555.9 785.5 546.6 783.4 539.8Z" fill="#F2DDA4"/>
<path opacity="0.6" d="M855.4 543L871.2 542.7L870.6 559.1H851.3C851.3 559.1 857.5 549.7 855.4 543Z" fill="#F2DDA4"/>
</g>
<path d="M1011.5 507.1C1011.5 506.9 1011.5 506.8 1011.6 506.6L1011.4 506.2C1011.2 506.1 1010.9 506 1010.6 505.8C1011.4 503.8 1011.9 501.6 1009.7 502.4L1009 503.1C1009.1 502.7 1009.2 502.2 1009.2 501.7C1009.1 501.5 1009.1 501.2 1008.9 501C1008.8 500.9 1008.7 500.8 1008.5 500.7C1008.7 499.4 1008.5 498.5 1007.3 499.1C1007 499.2 1006.7 499.4 1006.4 499.6C1006.5 499.2 1006.5 498.8 1006.5 498.4C1006.5 498.2 1006.5 498 1006.4 497.8C1006.3 497.6 1006.2 497.3 1005.9 497.2C1005.4 497 1005 497.2 1004.7 497.3H1004.8C1004.3 497.5 1003.8 497.8 1003.4 498.2C1003.4 498 1003.4 497.8 1003.3 497.6C1003.3 497.5 1003.3 497.4 1003.2 497.3C1003.1 497.2 1003 497.1 1002.9 497C1002.7 496.8 1002.4 496.8 1002.2 496.8C1000.7 497.1 999.8 498 999.1 499.1C998.4 500.1 998 501.3 997.5 502.4C997.2 503.1 996.9 503.7 996.5 504.3C996.3 504.2 996.1 504.1 995.9 504.1C995.8 503.8 995.6 503.6 995.4 503.3C994.9 502.7 994.1 502.3 993.3 502.2C993.2 502.2 993 502.2 992.9 502.2L993.1 501.4C993.1 501.4 994.2 486.3 995.3 469.4C996.5 469.9 997.7 470.8 998.4 472.1C999.1 473.3 999.6 475.1 998.2 477.5L999.1 478C1000.7 475.2 1000.1 473 999.3 471.6C998.4 470 996.9 468.9 995.4 468.4C996.7 448.4 998 426.3 997.4 424C997.1 422.7 996.3 420.3 994.6 417.5L1001.6 401.2L998.7 403.2L1000.1 400L999.4 399.4L985.5 408.8C981 406.2 974.9 404.2 966.7 403.9L959.6 381.8L959 383.2L958.1 380.2H957.2L947.9 402.9V403.3C947.9 403.3 947.9 403.4 948 403.4C942.9 404.7 938.3 406.6 934.2 409.1V408.7L919 396.8L918.2 397.3L921.4 419.5L922.3 419.7C921.2 421.2 920.2 422.7 919.3 424.3C913.6 434.3 911.9 446.6 914.5 458.9V459C914.5 459.1 917 464.6 919.2 471.8H906.4C905.6 470.8 904.7 470 903.9 469.4L905.7 467.6C906.8 468.7 908.5 470 910.2 470.3C911.6 471.1 913.2 471.6 914.8 470.8C915.8 470 915.8 465.2 912.5 462.9C911.2 461.1 909.2 460 906.7 460C904.4 460 892.1 475.4 888.4 480.1V480.7C888.8 481.3 896.3 492.7 905 495.2C907 496.1 909 496.6 911.1 496.4C915.5 496 919.5 493.3 922.7 490.5C922.7 491.3 922.7 492.1 922.6 492.9L923.2 493.4L925.1 492.9C925.1 493.4 925.1 493.8 925 494.3L930.1 492.9C931.1 494.5 933 497.2 936.2 500.3C936.6 500.7 937 501 937.4 501.4C936.4 503.3 931.5 513.8 934.1 518.2C934.9 519.5 936.6 520.8 938.8 522.5C944.7 526.9 953.5 533.6 951.8 547.2C951.8 550.3 942.1 554.2 938.3 555.4L938.5 556.4H942.7C941.4 556.9 940.5 557.2 940.5 557.2H961.8V528.6C961.8 528.6 961.2 528.2 960.3 527.4V527.3L960.1 526.9C960.1 526.9 959.5 526.5 958.6 525.7C956 522.7 953.2 517.8 956.3 512C958.1 512.7 960 513.3 962 513.8C963.3 516.4 969.2 527.8 979.4 533.5C980.5 534.8 981 537.8 979.9 541.4C978.9 544.8 975.7 551 965.8 553.5L965.7 554.4L969.3 556.2L969.5 556.3H969.9L971.5 557.1H990.8V530.5C990.8 530.5 977.5 518.3 987.3 511.8C987.5 512 987.7 512.3 988 512.5C988.3 512.7 988.6 513 988.9 513.2L989.9 513.8C991.6 514.7 993.4 515.4 995.3 515.8C1004.1 519.2 1013.7 515.5 1013.8 508C1013.8 507.9 1012.7 507.2 1011.5 507.1ZM1011.2 506.9C1011.2 507 1011.2 507.1 1011.2 507.2C1010.5 507.3 1009.9 507.6 1009.4 508.5C1009.6 508.2 1010 507.5 1010.3 506.6C1010.6 506.6 1010.9 506.7 1011.2 506.9ZM1008.6 501.7C1008.7 502.1 1008.5 502.8 1008.3 503.4C1008.2 503.6 1008.1 503.9 1008 504.1L1007.3 504.9C1007.3 504.9 1008 503 1008.4 501.4C1008.5 501.4 1008.5 501.4 1008.6 501.7ZM1005.3 498.1C1005.6 498 1005.9 498 1005.9 498C1005.9 498 1006 498.1 1006 498.4C1006 498.9 1005.9 499.4 1005.8 500C1005.8 500.1 1005.7 500.2 1005.7 500.3C1005.4 500.7 1005.2 501.1 1005.1 501.4C1005.4 500.5 1005.9 498.1 1004.2 498.7C1004.6 498.5 1004.9 498.3 1005.3 498.1ZM998.4 502.7C998.9 501.6 999.4 500.5 1000 499.5C1000.3 499.1 1000.7 498.7 1001.1 498.3C1001.6 498 1002.1 497.6 1002.5 497.6C1002.7 497.6 1002.7 497.6 1002.8 497.8C1002.8 498 1002.8 498.2 1002.8 498.5C1002.8 498.8 1002.7 499 1002.7 499.3C1002.7 499.3 1002.7 499.4 1002.6 499.4C1002.4 499.7 1002.3 499.9 1002.2 500.3C1000.6 502.3 1000.3 505.4 998.2 507C998.2 507 998.2 505.7 997.2 504.8C997.7 504.1 998.1 503.4 998.4 502.7ZM993.2 502.8C993.9 502.9 994.5 503.2 994.9 503.7C995 503.8 995 503.9 995.1 503.9C994.8 503.9 994.5 503.9 994.1 503.9C993.7 503.9 993.1 503.9 992.4 503.6L992.6 502.7C992.8 502.7 993 502.7 993.2 502.8ZM998.4 401.1L997.1 404.2L987.9 410.4C987.4 410 986.9 409.7 986.3 409.3L998.4 401.1ZM948.8 403L957.5 381.8L958.4 384.6L950.3 404.4C950.3 404.4 950.4 404.6 950.7 405C950.6 405 950.5 405 950.5 405C949.8 404.2 949.3 403.5 949 403.1V403C948.8 403.1 948.8 403 948.8 403ZM948.4 404.3C948.6 404.6 948.9 405 949.2 405.3C944.1 406.4 939.6 408.1 935.7 410.4L934.9 409.8C938.9 407.3 943.5 405.5 948.4 404.3ZM913.3 485.2C914.1 485.6 914.9 485.9 915.8 486.1C913.8 487.8 911.5 489.2 908.9 489.4C906.4 489.6 903.9 488.6 901.5 486.5C901.2 486.2 900.9 485.8 900.6 485.4C900.6 485.4 905.9 485.3 908.7 482.7C909.9 483.8 911.4 484.7 913.3 485.2ZM909 490.5C912.1 490.3 914.9 488.5 917.1 486.5C917.9 486.6 918.7 486.7 919.5 486.7C916.2 490 911.4 493.1 906 490.3C907 490.5 908 490.6 909 490.5ZM921.9 473.6H920.8C920.7 473.3 920.6 473.1 920.6 472.8H921.7C921.7 473.1 921.8 473.3 921.9 473.6ZM909.4 482C909.5 482 909.5 482.1 909.6 482.1C909.5 482.1 909.4 482.1 909.4 482ZM926.3 417.9C928.3 415.6 931.5 412.6 935.1 410.8C931.6 412.8 928.7 415.2 926.3 417.9ZM919.4 398.4L920.9 399.5L923.4 416.8C923 417.3 922.6 417.8 922.3 418.1L919.4 398.4ZM922.6 419.3C922.5 419.4 922.5 419.5 922.4 419.6C922.4 419.5 922.5 419.5 922.6 419.3ZM915.5 458.6C912.9 446.5 914.6 434.5 920.2 424.7C921.3 422.8 922.5 421.1 923.8 419.4L924 420.7C916.1 431.3 914 445.6 917.1 460C917.1 460 919.3 465 921.5 471.7H920.4C918.2 464.7 915.7 459.2 915.5 458.6ZM919.7 473.6H908.1C907.9 473.3 907.6 473.1 907.4 472.8H919.5C919.6 473.1 919.7 473.3 919.7 473.6ZM906.3 466.8L906.4 466.7C906.4 466.7 906.6 467.1 907.1 467.5C906.8 467.3 906.5 467.1 906.3 466.8ZM889.3 480.3C896.8 470.8 905.2 461.1 906.6 460.9C908.1 460.9 909.2 461.3 910.1 461.9C909.6 461.8 909.2 461.7 908.6 461.7C908 461.7 906.5 463.1 904.6 465.1H904L901.1 468.1L901.2 468.9C896.2 474.6 890.6 481.7 890.6 481.7C890.6 481.7 892.6 484.8 895.8 488.2C892.5 484.8 890 481.3 889.3 480.3ZM923.4 492.1C923.4 491.2 923.5 490.3 923.4 489.4C923.9 489 924.3 488.5 924.7 488.1L924.4 485.9H924.5C924.8 487.9 924.9 489.8 924.9 491.7L923.4 492.1ZM931 492.4L931.6 492.2C931.6 492.2 933 495.4 936.9 499.4C936.9 499.4 936.9 499.4 936.8 499.3C933.8 496.5 932 494 931 492.4ZM934.8 517.4C932.6 513.6 936.9 504.1 938.1 501.8C938.6 502.2 939.1 502.6 939.6 503C938.4 505.6 934.1 515 936.4 518.9C936.5 519 936.6 519.2 936.7 519.3C935.8 518.7 935.2 518.1 934.8 517.4ZM941.3 555.2C945.5 553.6 952.7 550.4 952.7 547.1C953.8 538.2 950.6 532.1 946.6 527.8C951.3 532.2 955.5 538.5 954.2 548.4C954.2 550.9 949.1 553.6 945.1 555.3H941.3V555.2ZM963.3 514C963.6 514.1 963.9 514.2 964.2 514.2C964.2 514.2 967.2 521.2 973.2 527.5C967.9 522.4 964.6 516.5 963.3 514ZM980.8 541.6C981.7 538.6 981.6 535.7 980.7 533.7C981 533.9 981.3 534.1 981.7 534.3C984.5 537.4 983.5 550.5 969 554.9L967.3 554C977 551.1 980 544.4 980.8 541.6ZM988.5 511C988.6 510.9 988.7 510.9 988.8 510.8C989.1 511.3 989.4 511.7 989.8 512.1C989.3 511.8 988.9 511.4 988.5 511Z" fill="#DC3545"/>
<g opacity="0.6">
<path opacity="0.6" d="M950.7 542.9H962.4L963.4 558.1L936.3 557.5L936.8 554.5C936.8 554.5 952.9 553.3 950.7 542.9Z" fill="#F2DDA4"/>
<path opacity="0.6" d="M965 558.1L964.2 553.2C964.2 553.2 978.6 549.2 978.6 540.9H991V558.2L965 558.1Z" fill="#F2DDA4"/>
</g>
<path opacity="0.6" d="M544.3 559.1H543.2C543.6 559.3 544 559.3 544.3 559.1Z" fill="#DC3545"/>
<path d="M625.1 451.4C624.7 451.1 624.1 451.2 623.4 451.4C623.4 451.2 623.5 451 623.5 450.7C623.5 450.4 623.3 450.1 623.1 450C623 449.9 622.9 449.8 622.8 449.8C622.7 449.7 622.6 449.7 622.5 449.7C622.2 449.7 622.1 449.7 621.9 449.7C621.8 449.7 621.7 449.7 621.7 449.7C622 449 621.9 448.4 621.1 448.3C620.8 448.2 620.4 448.3 619.9 448.4C620 448.1 620 447.9 620 447.6C619.9 447.3 619.7 447.1 619.5 446.9C619.2 446.8 619 446.7 618.8 446.7C618.3 446.6 618 446.7 617.6 446.8C616.2 447.2 615 448 613.9 448.8C613.4 449.1 613 449.5 612.5 449.9C611.9 448.5 611.1 447.3 610.5 447.3C610.4 447.3 610.3 447.4 610.2 447.6C609.9 447.1 609.6 446.5 609 446.1C608.8 445.9 608.6 445.8 608.3 445.8C608.3 445.8 608.1 445.8 608 445.9C607.9 446 607.9 446 607.8 446.1C607.7 446.2 607.6 446.3 607.6 446.4C607.5 446.8 607.4 447.2 607.4 447.5C607.3 448.8 607.4 450.2 607.5 451.5C607.6 452.8 607.7 454 607.9 455.2C597.5 460.3 587.1 465.5 576.7 470.7C576.5 470.2 576.4 469.7 576.2 469.2H575.3L573 475.9L568.7 465.8L568.5 468.2L567 464.6L566 464.8L564.5 481.6L560.9 478.9L559 477.5L558.2 477.7L554.5 485.7L553.3 483.5L552.9 484.8L551.5 482.3L550.6 482.4L549.7 485.6L545.7 479.9L545.6 480.9L544 478.6L543.1 478.8L541.6 489.6C541 489.4 539.9 488.9 538.6 488.1C537.4 487.2 536.1 486 534.9 484.5C535.3 483.1 536.5 479.2 538 476.3C538.5 475.4 539 474.9 539.7 474.8C540.2 474.9 540.8 475.1 541.6 475.3C543 475.8 544.7 476.4 546.8 476.4C547 476.4 547.2 476.4 547.3 476.4C547.5 476.4 547.7 476.4 547.9 476.4C551.8 476.5 551.7 473.3 551.5 471.6C552 471.8 552.5 471.9 553.1 471.8C553.2 471.8 553.3 471.8 553.4 471.8C556.7 472.4 560 467.5 560 467.5C560 467.5 559.6 467.5 559.1 467.6C559.2 467.4 559.3 467.3 559.3 467.3L558.9 466.5C558.8 466.5 556.5 466.5 554 468.5C553.3 469 552.5 468.5 551.4 467.6C550.5 466.9 549.6 466.2 548.7 466.5C548 466.7 547.5 467.5 547.1 468.8C545.9 472.5 545 472.3 541.7 471.9C540.7 471.7 539.4 471.6 537.8 471.5C536.3 471.4 534.9 471.9 533.9 472.9C532.5 474.2 531.7 476.2 531.3 478C529.2 472.9 528.2 466.1 529.7 457L533.4 466.5L534.4 466.4L534.7 463.8L536.1 467.3L537.7 455.3L542.7 462.2L543.6 461.9V460.5L545.3 462.9L545 455.6L557.2 465.2L558 464.6L557.9 464.3L559.7 465.7L555.6 453.9L565.2 459.8L565.9 459.3L567.7 460.4L563.4 446.7L578.6 455L579.1 454.6L581 455.7C581 455.7 574.7 432.8 563.1 424.6C560.2 422 557.1 420.5 553.9 420.2C548.6 419.7 540.8 420.5 532.8 422.7C531.1 421.5 529.1 420.2 527 418.9C518.6 414.1 511.3 412.9 505.7 415.2C502.3 416.6 499.6 419.3 497.5 423.3C494.2 421.5 491 420.8 487.9 421.1C480.3 421.9 474 429.5 469.2 443.6C466.9 443.8 465.1 445.6 465.1 448C465.1 450.4 467.1 452.4 469.5 452.4C471.9 452.4 473.9 450.4 473.9 448C473.9 445.8 472.3 444 470.2 443.7C474.9 430.2 480.8 423 488 422.2C491 421.9 494.1 422.7 497 424.3C494.2 430 492.6 438.2 492.2 448.7C490 448.9 488.3 450.8 488.3 453.1C488.3 455.5 490.3 457.5 492.7 457.5C495.1 457.5 497.1 455.5 497.1 453.1C497.1 450.9 495.4 449 493.2 448.8C493.6 438.5 495.1 430.5 497.8 424.9C502.1 427.4 506.1 431.4 509.2 435.1C508.9 435.4 508.6 435.7 508.2 436C501.6 442.5 498.6 450.3 499.4 459.1C499.7 462.4 500.2 465.9 501 469.8C498 468.5 495 467.3 491.9 466.2C484.5 463.5 476.9 461.3 469.2 459.3C468.2 457.6 466.1 454.3 464.9 454.1C464.7 453.9 464.6 453.7 464.4 453.6C464.1 453.4 463.9 453.2 463.6 453C463.5 452.9 463.3 452.8 463.1 452.8C462.9 452.8 462.6 452.8 462.4 452.9C462 453 461.8 453.5 461.7 453.8C461.6 454.2 461.6 454.5 461.6 454.8C461.6 455.6 461.7 456.4 462 457.2C460.8 456.5 459.6 455.9 458.3 455.4C457.5 455.1 456.6 454.8 455.7 454.7C455.3 454.6 454.7 454.6 454.2 454.9C453.6 455.2 453.3 455.9 453.5 456.5C453.6 457.1 454 457.5 454.3 457.8C454.7 458.1 455 458.4 455.4 458.6C456.1 459 456.9 459.4 457.7 459.8C458.4 460.2 459.1 460.5 459.9 460.8C459.4 460.8 458.9 460.9 458.3 460.9C457.6 461 456.8 461.1 456.1 461.3C455.4 461.5 454.6 461.8 454 462.4C453.7 462.7 453.5 463.1 453.4 463.6C453.4 463.8 453.4 464 453.5 464.3C453.6 464.6 453.8 464.9 454 465C454.4 465.2 454.7 465.3 455 465.3C454.6 465.5 454.3 465.8 454 466.2C453.9 466.4 453.8 466.7 453.7 466.9C453.6 467.2 453.6 467.4 453.7 467.8C453.8 468.1 454.1 468.3 454.4 468.4C454.6 468.5 454.9 468.5 455.1 468.5C455.4 468.5 455.7 468.4 456 468.4V468.5C456.1 469.6 458.5 469 460.8 468.1C460.8 468.1 460.8 468.1 460.8 468.2C460.5 468.9 460.3 469.8 460.6 470.6C460.6 470.8 460.8 471.1 461.1 471.2C461.4 471.3 461.7 471.3 461.9 471.2C462.3 471.1 462.6 470.8 462.9 470.6C462.9 470.9 463 471.2 463.1 471.5C464.1 473.6 470.1 464.7 470.1 464.7C470.6 464.5 471.7 464.6 473.1 465C473.3 465.1 473.5 465.1 473.8 465.2C475.7 465.8 477.7 466.5 479.6 467.2C483.4 468.6 487.2 470.2 491 471.7C495.8 473.7 500.7 475.7 505.5 477.7C506.4 480.6 507.5 483.3 508.6 485.9C507.1 486 505.6 486.2 504.1 486.6C501.2 487.3 498.5 488.6 496.1 490.3C493.7 492 491.6 494.2 490 496.7C488.4 499.2 487.1 502 486.9 505C486.8 505.8 486.9 506.5 487.2 507.3C487.4 507.6 487.6 508 487.9 508.3C488.2 508.6 488.6 508.8 489 508.9C489.6 509.1 490.1 509.2 490.7 509.3C493.8 511 503.5 508.5 511.1 506.1C510.6 506.7 510.1 507.4 509.9 508.2C509.8 508.6 509.7 509 509.9 509.6C510 509.9 510.3 510.1 510.6 510.2C510.9 510.2 511.2 510.2 511.4 510.2C511.8 510.2 512.1 510.1 512.5 510C512.5 510.7 513 510.9 513.7 510.8L512.6 514.2L512.7 514.7L515.1 517.7L515.7 517.8L516.7 517.1L517.7 518.4L522 515.4C522 515.4 525 511.1 526.7 506.9C527.1 507.1 527.4 507.3 527.8 507.4L526.7 558.3L527.2 558.8H529.4V559.4H543.7C543.4 559.3 543.1 559.1 542.7 558.8C542.8 558.8 542.9 558.7 542.9 558.7L542.6 557.8H541.6C541.5 557.8 541.5 557.7 541.4 557.7C540.3 556.7 539.4 555.6 539.4 555.6C534.5 551.6 538.1 518.9 539.1 510.1C542.2 510.4 545.9 510.5 549.7 510.3L551.1 558.4L551.6 558.9C552.3 558.9 553 558.9 553.8 558.8V559.5C553.8 559.5 563 559.2 563.8 559.5C563.8 559.5 561.1 557 558.1 552.7C555.1 548.4 563.8 508 563.8 508L563 508.2C571.2 505.8 578.3 501 580.6 492.4C581.3 493.3 582 494.2 582.7 495.1C584.1 496.7 585.6 498.3 587.2 499.7C588.9 501.1 590.6 502.4 592.6 503.3C593.4 503.7 594.4 504 595.3 504.1C597.3 504.9 599.4 505.1 601.1 504.2C605.2 502.8 604.4 482.5 604.4 482.5L624.4 476.8C624.4 476.8 623.7 476.4 622.6 475.9V475.5C621 474.6 619.3 474 617.5 473.6C615.7 473.2 613.9 473 612.1 473C610.3 473.1 608.5 473.2 606.7 473.7C605.9 473.9 605.1 474.2 604.3 474.4C604.6 472.5 604.5 470.1 602.6 470.3C602.6 470.3 602.6 470.3 602.6 470.4C602.6 470.3 602.5 470.2 602.5 470.1C602.4 469.9 602.3 469.8 602.2 469.6C602 469.5 601.9 469.3 601.7 469.2C601.5 469.1 601.3 469 601.1 469C600.9 469 600.7 469 600.5 469L600.1 469.4L598.5 483.5C598.2 485.8 598 488.2 597.7 490.5C597.5 491.6 597.4 492.8 597.1 493.9C596.8 495 596.4 496.2 595.7 497C595.4 497.4 594.9 497.7 594.4 497.7C594.1 497.7 593.8 497.6 593.5 497.5C590.8 495.3 587 490.2 581.6 480.3L613 460.2C613.3 460.3 613.6 460.4 613.9 460.5C614.5 460.7 615 460.9 615.6 461C618 461.9 621.4 462.9 621.6 462.2C621.9 461.2 619.4 459.5 618.6 459C618.5 458.9 618.5 458.9 618.4 458.8C619.2 458.8 624.7 459 624.7 457.3C624.7 456.4 623.8 456.1 622.9 456.1V456C622.9 455.7 622.7 455.4 622.5 455.2C623.6 453.8 625.9 452.1 625.1 451.4ZM511.4 436.4C511 435.9 510.7 435.5 510.3 435C516.4 429.7 524.4 426 532.3 423.7C532.7 424 533.1 424.3 533.5 424.6C525.5 427 517.4 430.8 511.4 436.4ZM508.7 490.5C510 492.7 511.6 494.9 513.3 497L514.1 496.4C512.4 494.3 510.9 492.2 509.6 490.1C509.9 490 510.1 489.9 510.3 489.8C511.9 492.7 513.6 495.2 515.5 497.5C515.2 497.6 514.8 497.6 514.5 497.7C511.5 498.3 508.5 499.2 505.6 500C504.1 500.4 502.7 500.8 501.2 501.2C499.9 501.6 498.5 501.9 497.1 502C495.5 497.5 502.5 493.3 508.7 490.5ZM497.5 502.7C497.5 502.7 497.5 502.6 497.4 502.6C498.8 502.5 500.2 502.2 501.6 501.9C503.1 501.6 504.5 501.2 506 500.8C508.9 500 511.8 499.2 514.8 498.6C515.3 498.5 515.8 498.4 516.3 498.3C516.5 498.6 516.7 498.8 517 499.1C508.8 500.8 498.6 504.6 497.5 502.7ZM621.2 450.8C621.7 450.7 622.3 450.6 622.5 450.7C622.6 450.6 622.5 450.7 622.5 450.8C622.5 451 622.3 451.2 622.1 451.4C621.7 451.8 621.3 452.2 620.8 452.5C620.2 453 619.5 453.4 618.9 453.8C619.3 453.3 620.4 452 621.2 450.8ZM614.5 449.8C615.6 449 616.7 448.3 617.9 447.9C618.5 447.7 619.2 447.8 619.1 448C619.2 448.1 619.1 448.4 619 448.7V448.8C616.4 450 613.2 452.9 613.2 452.9C613.2 452.4 613.1 451.7 612.9 451C613.4 450.6 613.9 450.2 614.5 449.8ZM608.7 456L608.9 455.6C608.8 454.3 608.7 453 608.6 451.7C608.5 450.4 608.4 449.1 608.5 447.8C608.5 447.5 608.5 447.1 608.6 446.9C608.6 446.9 608.6 446.9 608.6 446.8C608.6 446.8 608.7 446.8 608.7 446.9C609.1 447.2 609.4 447.8 609.7 448.3C609.8 448.5 609.9 448.8 610 449C609.9 451.7 610.5 456.5 610.5 456.5L578.5 472V472.2C578.3 471.6 578.1 471 577.9 470.4L577.2 472.4C577 471.9 576.9 471.3 576.7 470.7C587.3 465.9 597.8 460.8 608.7 456ZM575.7 470.9C576.1 472 576.4 473 576.6 474L574.6 479.9L573.5 477.3L575.7 470.9ZM566.7 466.8L568.2 470.3L567 483.5L565.3 482.3L566.7 466.8ZM558.8 478.7L560.4 479.9L556.2 489L555 486.9L558.8 478.7ZM551.2 483.8L552.5 486.2L551.8 488.6L550.4 486.6L551.2 483.8ZM542.3 490.4L543.7 480.2L545.2 482.4L543.9 491.3C543.9 491.3 543.2 491.1 542 490.5L542.3 490.4ZM554.2 469.3C555.4 468.4 556.5 467.9 557.3 467.7C557.2 467.9 557 468.1 556.8 468.3C556.2 468.6 555.6 468.9 554.9 469.5C554.4 469.9 553.9 469.9 553.4 469.7C553.8 469.6 554 469.5 554.2 469.3ZM547.6 469C548 467.7 548.4 467.4 548.6 467.3C548.8 467.2 549 467.3 549.3 467.5C548.9 467.8 548.6 468.3 548.3 469.3C547.3 472.6 546.2 473.1 544.1 472.9C545.6 472.9 546.7 472 547.6 469ZM534.1 473.5C535 472.7 536 472.3 537.3 472.4C537.4 472.4 537.5 472.4 537.6 472.4C533.4 472.8 532.3 478.2 532.1 480.5C531.9 480.2 531.7 479.8 531.6 479.5C531.8 477.8 532.4 475.1 534.1 473.5ZM533.2 464.2L529.6 454.9C529.7 454.2 529.9 453.5 530 452.8L533.5 461.8L533.2 464.2ZM542 460.2L537.3 453.8L537.4 452.8L541.9 459L542 460.2ZM556.1 463.3L544.5 454.2V454.1L556 463.1L556.1 463.3ZM553.4 421.1C554.4 421.2 555.4 421.5 556.4 421.8C556.1 421.8 555.9 421.7 555.6 421.7C550.4 421.2 542.6 421.9 534.5 424.2C534.1 423.9 533.8 423.6 533.4 423.3C541.1 421.3 548.4 420.6 553.4 421.1ZM507.5 431.7C504.2 428.2 501.1 425.5 498 423.7C500 419.9 502.6 417.4 505.8 416C514.2 412.5 524.9 418.4 531.3 422.9C523.5 425.2 515.7 428.9 509.7 434.1C509 433.4 508.2 432.5 507.5 431.7ZM500.1 458.8C499.4 450.3 502.2 442.8 508.6 436.5C508.9 436.2 509.2 435.9 509.5 435.7C509.9 436.2 510.3 436.7 510.6 437.1C504.7 442.9 500.9 450.4 501.7 459.9C502 463.8 502.6 467.4 503.3 470.8C503.1 470.7 502.9 470.7 502.8 470.6C502.1 470.3 501.5 470 500.8 469.7L501.6 469.5C500.9 465.5 500.4 462.1 500.1 458.8ZM487.5 465.2C477.9 462.2 469.5 460.1 469.5 460.1C475.5 461.6 481.5 463.3 487.5 465.2ZM462.5 453.4C462.6 453.2 463.1 453.5 463.5 453.9C463.6 454 463.7 454.2 463.9 454.3C463.3 455.5 464.4 458.8 464.4 458.8C464.4 458.8 463.7 458.4 462.7 457.9L462.9 457.7C462.6 456.6 462.3 455.5 462.2 454.5C462.2 454 462.3 453.4 462.5 453.4ZM454.3 456.1C454.2 455.8 454.3 455.6 454.5 455.5C454.7 455.4 455.1 455.4 455.5 455.4C456.2 455.5 457 455.7 457.8 456C456.8 455.8 456 455.9 455.7 456.6C455.6 456.9 455.7 457.3 455.9 457.7C455.9 457.7 455.8 457.7 455.8 457.6C455.2 457.2 454.5 456.6 454.3 456.1ZM454.7 462.9C455 462.5 455.7 462.2 456.3 462C456.9 461.8 457.6 461.7 458.3 461.6C459.6 461.5 460.9 461.4 462.2 461.5C462.3 461.5 462.4 461.5 462.5 461.5V461.4C463.6 461.8 464.4 462 464.4 462C464.4 462 456.7 461.5 455.8 464.1C455.3 464.1 454.7 464.1 454.5 464C454.3 464 454.3 463.3 454.7 462.9ZM454.5 467.3C454.4 467.2 454.4 467.2 454.5 467.3C454.4 467.2 454.4 467 454.4 466.9C454.5 466.7 454.5 466.6 454.6 466.5C454.9 466.1 455.5 465.7 456 465.4C456.6 465.8 457.9 465.6 459.2 465.3C458.1 465.8 456.9 466.3 456.2 467C455.8 467.1 455.3 467.2 454.9 467.2C454.8 467.3 454.6 467.3 454.5 467.3ZM462.3 469.5C462 469.7 461.7 469.9 461.5 470C461.2 470 461.3 470 461.2 469.8C461 469.3 461.1 468.7 461.4 468.1C461.5 467.9 461.7 467.7 461.8 467.5C463.8 466.7 465.5 465.8 465.5 465.8C465.5 465.8 463.9 467.2 463.1 468.8C462.8 469.1 462.6 469.3 462.3 469.5ZM487.3 504.9C487.5 502 488.7 499.2 490.2 496.8C491.8 494.3 493.8 492.1 496.1 490.4C498.4 488.7 501.1 487.4 503.9 486.6C505.3 486.2 506.8 485.9 508.3 485.8C508.5 486.2 508.7 486.6 508.9 487C493.4 489 487 504.4 489.6 508.4C489.4 508.4 489.1 508.3 488.9 508.2C487.6 507.8 487.3 506.3 487.3 504.9ZM510.9 509.3C510.8 509.3 510.7 509.3 510.6 509.3C510.5 509.3 510.5 509.3 510.5 509.2C510.4 509.1 510.4 508.7 510.5 508.4C510.7 507.8 511.1 507.2 511.5 506.7C512 506.1 512.6 505.6 513.3 505.1C517 503.9 519.9 502.8 520.5 502.6C519.5 503 513.3 505.8 512.2 508.9C511.8 509 511.3 509.2 510.9 509.3ZM515.2 516.8L513.3 514.4L514.8 510.1C516 509.5 517.2 508.7 517.2 508.7L515 515.2L516 516.4L515.2 516.8ZM527.2 557.5L528.3 507.6C528.9 507.8 529.4 508.1 530 508.3L528.9 557.6H527.2V557.5ZM551.6 557.5L550.2 509.9C551 509.8 551.8 509.8 552.6 509.7L551.8 509.8L553.2 557.4C552.6 557.5 552 557.5 551.6 557.5ZM587 498.8C585.4 497.5 583.9 496 582.4 494.4C581.6 493.5 580.9 492.7 580.1 491.8C580.2 491.4 580.3 491 580.4 490.6C580.6 490.9 585.3 497.4 590.7 501.4C589.4 500.7 588.1 499.7 587 498.8ZM603.8 474.9C604.6 474.7 605.4 474.4 606.3 474.2C608 473.7 609.8 473.6 611.5 473.5C613.3 473.4 615 473.6 616.7 474C617.1 474.1 617.6 474.2 618 474.4C614.3 473.7 609.2 473.8 603.3 476.4C603.3 476.4 603.5 475.8 603.6 475C603.7 474.9 603.7 474.9 603.8 474.9ZM594 497.8C594.6 497.7 595.3 497.4 595.7 496.9C596.6 495.9 597 494.8 597.3 493.6C597.6 492.4 597.8 491.3 598 490.1C598.3 487.8 598.6 485.4 598.9 483.1L600.5 469.4C600.9 469.4 601.1 469.6 601.2 470C601.4 470.5 601.4 471.1 601.4 471.7C601.4 472.9 601.1 474.1 600.8 475.3L601.4 475.9H601.5C601 480.8 600.3 487.4 599.8 490.5C599.3 493.8 598.5 500.7 594 497.8ZM621.3 455.5C621.4 455.6 621.5 455.7 621.5 455.8C620.9 455.8 620.4 455.9 620.4 455.9C620.4 455.9 620.7 455.7 621.2 455.4C621.2 455.5 621.3 455.5 621.3 455.5Z" fill="#DC3545"/>
<path opacity="0.6" d="M506.6 484.3C505.4 481.6 504.5 479.4 503.8 477.3L502.8 477.6C503.5 479.8 504.4 482.1 505.6 484.8L506.6 484.3Z" fill="#DC3545"/>
<g opacity="0.6">
<path opacity="0.6" d="M526.1 544.6H536.6C536.6 544.6 536.6 557.3 544.6 557.7V560L526.1 559.9V544.6Z" fill="#F2DDA4"/>
<path opacity="0.6" d="M548.6 543.4H557.6C557.6 543.4 555.1 552.6 564.7 558.1V559.9H547.8L548.6 543.4Z" fill="#F2DDA4"/>
</g>
<path d="M656 541.3C655.9 541.2 655.9 541.1 655.8 541.1C655 540.2 654 539.7 652.9 539.4C652.3 535.4 649.7 524.9 639.7 518.9C638.9 518.3 638 517.7 637.1 517.1C639.6 516.1 641.5 515.8 642.9 515.9C643.8 516.5 644.1 517.3 644.1 517.3L644.5 517.2H645C645 516.9 645 516.7 645.1 516.4C646.7 517.1 647.2 518.4 647.2 518.5C647.4 513.6 649.9 512.7 652.3 513C653.2 513.4 653.8 513.7 653.8 513.8L654.1 513.5C655.6 514 656.7 514.7 656.7 514.7C649.9 504.3 665.6 503.2 665.6 503.2C664.1 503.3 662.5 503.1 660.8 502.7H660.9C661.6 502.7 662.3 502.6 663 502.4L662.8 501.4C662.7 501.4 661.9 501.5 660.7 501.7C658.8 501.8 656.8 501.3 654.9 500.6C650.5 498.6 647 496.3 647 496.3V496.4C645.5 495.4 644.6 494.6 644.6 494.6L643.8 495.1C646.3 509.1 635.6 514.8 633.8 515.6C630 513.9 625.4 512.9 619.8 512.8C606 512.6 595.1 514.9 587.3 519.4C587 519.3 585.9 518.7 584.5 517.8C581 514.9 577.1 510 577.4 502.9C577.4 502.9 576.7 503.7 575.5 504.6C575.4 503.7 575.3 502.7 575.3 501.6L574.4 501.3C574.2 501.5 569.4 507 562.6 504.7C562.2 504.5 561.9 504.4 561.8 504.4L561.5 505.3C561.7 505.4 561.9 505.5 562.2 505.6C564.5 506.5 572.2 510 570.7 515.4L571.5 515.9C571.9 515.5 572.9 514.9 573.9 514.6C574 515.3 574 516 573.8 516.8C573.8 516.8 575.3 515.6 576.9 515.3C577.6 516.2 578 517.8 578 520L579 520.2C579 520.2 579.4 519.3 581 519.1C581.1 519.7 581.2 520.5 581.2 521.3C581.3 521.3 582.1 519.3 586 520C586.1 520 586.2 520.1 586.3 520.1C577.8 525.5 573.2 533.9 572.8 545C571.6 545.3 568.8 546.3 566.9 548.8C564.7 551.6 564.2 555.4 565.5 560.1L566 560.5L568.5 560.4C568.6 560.7 568.6 561 568.7 561.3L660.6 558.2C660.6 558 662.7 543.8 656 541.3ZM654.1 541C653.8 541 653.5 541 653.1 541C653.1 541 653.1 540.8 653.1 540.5C653.4 540.6 653.8 540.8 654.1 541ZM640.6 511.5C643.2 508.5 646.1 503.4 645.1 496C645.7 496.4 646.4 497 647.3 497.6C648.3 505.9 644.6 511.2 641.2 514.2C640.8 514.1 640.4 514.1 639.9 514.1C639.2 514.1 638.5 514.2 637.6 514.3C638.6 513.6 639.6 512.7 640.6 511.5ZM640.2 515.1C638.9 516.1 637.7 516.8 637.1 517.1C636.5 516.7 635.9 516.4 635.2 516.1C637.3 515.3 639 515 640.2 515.1ZM565.9 506C569.9 506 572.9 503.8 574.4 502.5C574.4 503.3 574.5 504.2 574.7 504.9C572.9 506 570.2 507.1 567.1 506.6C566.7 506.5 566.3 506.3 565.9 506ZM572 514.2C572.2 511.8 570.9 509.8 569.1 508.3C571.1 509.5 573.1 511.3 573.8 513.4C573.1 513.6 572.5 513.9 572 514.2ZM579.8 518.1C579.5 518.2 579.2 518.4 579 518.5C578.9 517 578.6 515.9 578.1 515C579.2 515.1 580.2 515.8 580.8 517.8C580.5 517.9 580.1 518 579.8 518.1ZM566.4 559.3C565.5 555.4 565.8 552.2 567.4 549.8C569.6 546.5 573.5 545.7 573.4 545.7L573.9 545.2C574.2 533.7 578.7 525.3 587.6 520.1C588.3 520.3 589.1 520.6 589.9 521C589.9 521 589.1 520.7 587.9 519.9C595.2 515.7 605.3 513.6 618.2 513.6C618.8 513.6 619.3 513.6 619.9 513.6C624.3 513.7 628 514.4 631.2 515.5C628.6 514.9 625.8 514.5 622.6 514.4C593.6 514 576.6 524.1 576.1 546.5C576 546.5 566.4 548.3 568.3 559.2L566.4 559.3Z" fill="#DC3545"/>
<g opacity="0.6">
<path opacity="0.6" d="M596.5 518C596.5 518 615.6 523.5 623.9 515.9L618.5 483.4L586.1 485.4C586.1 485.4 580.9 499.8 603.3 498.2L596.5 518Z" fill="#F2DDA4"/>
</g>
</svg>
