<svg width="1200" height="600" viewBox="0 0 1200 600" fill="none" xmlns="http://www.w3.org/2000/svg">
<path d="M763.431 580.7C763.431 580.3 761.831 579.5 759.431 578.1C759.331 575.5 759.031 571.9 757.831 570.8C757.531 570.5 757.031 570.5 756.431 570.8C756.231 570.3 756.031 570 755.731 569.8C754.531 568.7 752.231 570.5 750.331 572.4C748.731 571.2 747.031 569.9 745.331 568.4C747.131 565.6 749.931 560.8 749.531 558.3C749.431 557.5 748.631 557.1 747.531 556.9C747.331 556.6 747.131 556.3 746.831 556.1C744.731 554.8 739.031 555.9 735.731 556.7C735.331 556.1 735.031 555.4 734.631 554.7C734.631 552.1 734.331 549.2 733.631 546.2C735.731 543.4 738.931 538.3 738.231 535.7C737.931 534.7 737.131 534.2 735.931 533.9C735.631 533.5 735.331 533.2 734.931 533C733.231 532 730.531 532.2 728.531 532.5C727.031 529.6 725.631 526.9 724.131 524.4C726.531 522.4 729.831 513.5 727.431 512.5C727.131 512.4 726.731 512.3 726.331 512.4C726.131 511.8 725.731 511.5 725.431 511.4C723.631 510.6 719.631 512.6 717.131 514C714.631 510.7 712.131 508 709.731 505.7C709.731 505.7 709.731 505.7 709.731 505.6C711.031 502.8 712.031 496.7 710.831 495.9C710.631 495.7 710.131 495.8 709.431 495.9C709.331 495.4 709.131 494.9 708.831 494.7C707.531 493.9 702.131 496.5 699.631 497.9L699.531 497.8C693.831 494.2 689.331 493.3 687.031 493C683.531 488.5 679.631 483.8 678.831 483.9C678.731 483.9 678.631 484 678.531 484.2C677.531 483.2 676.731 482.7 676.431 482.7C675.331 483 674.831 486.4 674.731 487.9C674.231 492.7 674.731 498.3 677.731 500.4C666.431 509.7 651.331 528.1 645.331 550.5C641.631 564.3 647.831 572.4 655.631 577.1C651.931 575.2 648.431 572.6 646.031 569.1C642.331 563.9 641.531 557.4 643.531 549.9C649.431 527.8 664.731 509.3 675.931 500.2L675.331 499.4C663.931 508.7 648.531 527.4 642.531 549.7C640.431 557.6 641.331 564.3 645.231 569.8C649.731 576.1 657.431 579.5 663.131 581.3C668.431 582.9 673.031 583.5 674.131 583.6C676.631 588.8 676.331 591.9 675.731 593.5C675.031 595.3 673.631 595.8 673.631 595.9L673.831 596.9L677.031 596.5C676.531 596.9 676.031 597.1 676.031 597.1L691.131 595.2L689.531 585.4H696.131C698.231 589.9 698.031 592.2 697.431 593.4C696.731 594.8 695.331 595 695.331 595L695.431 596L699.131 595.6C698.431 596.1 697.631 596.2 697.631 596.2L713.531 594.3L712.331 587.3C712.331 587.3 714.831 586.3 718.131 584C720.031 584 763.331 582.3 763.431 580.7ZM755.131 570.5C755.231 570.6 755.431 570.9 755.631 571.3C754.631 572 753.631 573 752.731 574C752.231 573.7 751.831 573.4 751.331 573C753.231 570.9 754.731 570.1 755.131 570.5ZM746.131 556.8C743.031 556.8 738.831 557.9 736.931 558.4C736.731 558.1 736.631 557.9 736.431 557.6C739.731 556.9 744.231 556 746.131 556.8ZM734.231 533.8C732.631 533.8 730.831 534 729.531 534.2C729.431 534 729.331 533.8 729.231 533.6C730.831 533.4 732.831 533.2 734.231 533.8ZM725.331 512.5C725.431 512.5 725.531 512.6 725.631 512.8C723.331 513.4 720.231 515.1 718.731 515.9C718.531 515.6 718.231 515.2 718.031 514.9C720.731 513.4 724.131 511.9 725.331 512.5ZM708.631 495.7C708.731 495.8 708.831 496 708.931 496.3C706.231 497.2 702.231 499.4 702.231 499.4C702.231 499.4 702.231 499.4 702.331 499.5C701.931 499.2 701.431 498.9 701.031 498.7C704.331 497 708.031 495.4 708.631 495.7ZM676.031 493.5C675.631 489 676.531 484.6 677.031 484C677.331 484.1 677.831 484.6 678.531 485.4C677.531 488.4 677.031 496 679.331 499.7C679.131 499.8 679.031 500 678.831 500.1C676.931 498.9 676.231 495.9 676.031 493.5ZM676.931 594.1C677.931 591.6 677.531 588.1 675.531 583.9C676.531 584 677.031 584.1 677.031 584.1C680.031 590.4 679.431 593.8 678.231 595.6L675.831 595.9C676.231 595.3 676.631 594.8 676.931 594.1ZM698.531 594C699.531 592.1 699.231 589.2 697.531 585.5H698.931C701.331 590.4 701.231 593.1 700.331 594.5L697.931 594.8C698.231 594.6 698.431 594.3 698.531 594Z" fill="#DC3545"/>
<g opacity="0.6">
<path opacity="0.6" d="M673.631 583.9L689.931 585.4L691.531 595.2L673.031 598.1C673.031 597.9 679.531 588.4 673.631 583.9Z" fill="#F2DDA4"/>
<path opacity="0.6" d="M695.231 584.7L712.331 585.4L713.931 595.2L694.131 596.4C694.131 596.3 699.631 589.6 695.231 584.7Z" fill="#F2DDA4"/>
</g>
<path d="M1083.13 579.2C1083.13 579.2 1074.43 503 1048.73 461.5C1047.13 457.7 1046.93 449.9 1047.13 444.4C1061.13 442.3 1063.73 417.9 1053.23 412.4C1053.13 412.3 1053.03 412.2 1052.93 412.1C1050.43 409.8 1045.73 407.8 1038.03 411.4C1030.53 415 1026.33 419.3 1025.53 424.2C1024.53 430.2 1028.83 435.9 1032.63 439.5C1034.33 441.2 1036.33 442.4 1038.53 443C1038.73 451.1 1037.93 464.4 1030.83 470.2C1029.93 470.9 1028.93 471.7 1027.63 472.6C1017.13 480.5 996.031 496.4 994.431 531.5C992.731 532.2 989.431 534 989.231 537.2C988.031 536.6 985.831 535.7 983.731 535.6L981.731 530.6V534.5L979.531 529L978.531 529.2V535.9L963.631 537.6V538.6L969.031 539.2L966.431 539.5L969.931 539.9L965.031 540.6V541.6L970.131 542.2L967.831 542.5L972.531 543L968.631 545.3L968.931 546.2L974.531 545.3L971.531 547.1L979.731 545.8C981.931 548 986.531 552.3 990.931 553C992.631 553.8 994.331 554.2 995.931 553.9C996.731 558.6 997.831 563.7 999.231 568.9C998.331 570.1 993.931 576.6 995.531 581.7C996.231 584 998.031 585.6 1000.93 586.6C1002.93 587.3 1004.83 587.8 1006.33 588.3C1008.33 588.9 1010.33 589.5 1010.53 589.7C1010.23 590.4 1004.43 592.3 998.731 594.1L998.931 595.1H1004.13C1003.33 595.4 1002.53 595.6 1001.63 595.9H1020.73L1019.73 578.1C1021.13 578.6 1023.03 579.2 1025.13 579.8C1032.43 582.1 1045.93 585.4 1058.23 584V596.9L1058.73 597.4H1061.43V598.2H1082.33C1082.33 598.2 1081.23 597.8 1079.73 597.1L1079.83 596.5C1077.93 595.8 1075.43 594.6 1073.53 593.5C1072.93 592.9 1072.63 592.3 1072.93 591.9C1073.83 589.7 1089.13 587.2 1083.13 579.2ZM1026.43 424.3C1027.13 419.7 1031.23 415.7 1038.43 412.2C1041.13 410.9 1043.53 410.3 1045.83 410.3C1047.43 410.3 1048.93 410.6 1050.23 411.3C1047.63 410.9 1044.53 411.4 1040.93 413.1C1020.73 422.7 1030.03 435 1035.63 440.4C1035.73 440.5 1035.83 440.5 1035.93 440.6C1035.03 440 1034.13 439.4 1033.33 438.6C1029.63 435.3 1025.53 429.9 1026.43 424.3ZM1028.13 473.4C1029.33 472.5 1030.43 471.7 1031.33 470.9C1038.63 464.9 1039.63 451.5 1039.43 443.2C1039.53 443.2 1039.63 443.3 1039.83 443.3C1040.43 443.6 1041.03 443.8 1041.63 444C1041.83 452.1 1041.03 465.9 1033.73 471.9C1025.33 478.8 999.131 494 997.531 533.3C996.731 533.7 996.031 534.2 995.231 534.7C995.231 533.9 995.231 533 995.331 532.2C995.431 532.1 995.531 532.1 995.531 532.1L995.331 531.4C996.931 496.9 1017.83 481.2 1028.13 473.4ZM994.331 532.7C994.331 533.7 994.231 534.6 994.231 535.6C993.031 536.7 992.131 538 992.331 539.5C992.331 539.5 991.231 538.9 989.731 538.3L990.131 538C989.831 535.2 992.631 533.5 994.331 532.7ZM987.731 537.7C986.631 537.5 985.431 537.4 984.531 537.8L984.031 536.7C985.331 536.8 986.731 537.3 987.731 537.7ZM968.131 538.1L979.031 536.9L979.431 536.4V531.8L981.331 536.5L981.631 536.6V537.7L973.431 538.6L968.131 538.1ZM968.831 541L973.731 540.3L978.731 540.9L973.831 541.6L968.831 541ZM971.231 544.9L974.031 543.2L977.431 543.6L976.731 544L971.231 544.9ZM980.831 545.7L981.431 545.6C981.431 545.6 983.231 547.7 985.831 549.8C983.831 548.5 982.031 546.9 980.831 545.7ZM996.431 581.6C994.831 576.6 1000.03 569.6 1000.13 569.5L1000.23 569.1C998.731 563.7 997.631 558.7 996.831 553.8C997.031 553.7 997.131 553.7 997.331 553.6C997.831 553.4 998.231 553 998.631 552.6C999.431 558.2 1000.63 564.1 1002.43 570.5C1002.43 570.5 995.231 580.1 1000.03 585.3C998.131 584.5 996.931 583.2 996.431 581.6ZM1002.03 594.2C1009.53 591.8 1011.33 591 1011.43 589.9C1015.03 591 1014.63 591.7 1007.13 594.2H1002.03ZM1059.13 596.5V583.9C1059.83 583.8 1060.63 583.7 1061.33 583.6V596.5H1059.13Z" fill="#DC3545"/>
<g opacity="0.6">
<path opacity="0.6" d="M992.631 577.8L1020.23 581.2L1021.83 596.9L994.231 595.7C994.231 595.7 1007.43 591.6 1005.53 589.6C1003.63 587.6 992.931 586.5 992.631 577.8Z" fill="#F2DDA4"/>
<path opacity="0.6" d="M1055.83 585.2L1084.93 581.2C1084.93 581.2 1079.43 591.1 1074.73 592.1C1072.93 593 1081.33 595.9 1082.13 598.2H1056.93L1055.83 585.2Z" fill="#F2DDA4"/>
</g>
<path d="M93.2314 397.7C91.2314 388.7 90.2314 371.1 89.6314 355.7C89.7314 355.7 89.8314 355.7 89.9314 355.7C92.8314 355.7 95.2314 353.3 95.2314 350.4C95.2314 347.5 92.8314 345.1 89.9314 345.1C89.7314 345.1 89.5314 345.1 89.2314 345.2C88.9314 334.2 88.9314 326.1 88.9314 326.1C98.5314 314 94.3314 308 89.3314 305.2C85.5314 301.8 79.6314 301 79.3314 301L79.0314 301.9C82.6314 304.5 84.4314 307.2 84.5314 309.9C84.5314 313.2 82.0314 315.6 81.2314 316.2L54.7314 320.9L48.0314 317.6L53.3314 305.7C53.3314 305.7 51.2314 307.3 48.9314 309.7L51.2314 304.6L50.4314 304C49.9314 304.4 38.6314 313.4 39.2314 320.4C39.7314 326.2 46.8314 328.4 49.5314 329C49.7314 329.1 49.8314 329.1 50.0314 329.2C48.4314 334.7 36.2314 375.5 31.9314 384.1C31.5314 384.9 30.7314 386.3 29.7314 388.2C24.6314 397.5 12.6314 419.2 5.53143 443.3C-3.26857 473.5 -1.56857 497.4 10.6314 514.3L11.5314 514L11.3314 511.8C12.0314 513 12.8314 514.2 13.6314 515.3L13.2314 511.4L14.2314 514.2L15.2314 514L14.9314 508.7L17.3314 515.4L17.1314 510.5L18.9314 515.8L19.9314 515.6V510.6L22.0314 516.9V509L25.1314 515.8L26.1314 515.6C26.1314 515.5 26.1314 514.4 26.1314 512.5L28.2314 517C28.2314 517 28.1314 475.1 32.4314 451.9C33.6314 465 37.6314 488.3 50.2314 515.8C54.3314 527.3 58.1314 582 50.2314 595L50.6314 595.8H53.7314C53.5314 596.1 53.4314 596.4 53.2314 596.7H71.2314C71.2314 596.7 69.6314 596.4 67.7314 595.8H68.6314L68.7314 594.8C68.6314 594.8 65.0314 594.1 62.2314 592.6C61.5314 591.7 61.1314 590.6 61.5314 589.4C62.6314 585.9 66.5314 565.9 69.0314 549.7L71.1314 595.3L71.6314 595.8H74.2314V596.7H87.5314C87.5314 596.7 86.4314 596.3 85.0314 595.4L85.1314 594.9C85.1314 594.9 84.1314 594.5 82.9314 593.7C80.6314 591.5 78.4314 588.1 78.6314 582.8C78.9314 572.4 87.1314 523.3 87.6314 520.3L90.2314 525.2L89.1314 515.7L96.6314 525.2L92.9314 515.7L100.231 521.3C95.6314 516 93.3314 490.8 93.3314 490.8C93.3314 490.8 123.831 466 93.2314 397.7ZM85.4314 309.9C85.4314 307.3 83.9314 304.8 81.2314 302.4C81.9314 302.6 82.7314 302.8 83.5314 303.1C82.5314 302.9 81.9314 302.8 81.9314 302.8C93.4314 311 83.9314 318.1 83.9314 318.1L82.9314 318.3L82.0314 316.8C83.0314 315.9 85.4314 313.4 85.4314 309.9ZM81.1314 317.3L81.9314 318.5L57.2314 322.8C57.2314 322.8 58.5314 325.3 57.4314 327.5C58.2314 325.4 57.2314 322.8 57.2314 322.8L55.4314 321.9V321.8L81.1314 317.3ZM40.1314 320.4C39.7314 315.5 46.1314 309.1 49.2314 306.3L46.6314 312.1C44.1314 315.1 41.9314 318.6 42.1314 321.8C42.3314 323.6 43.1314 325.1 44.3314 326.2C42.3314 324.9 40.3314 323 40.1314 320.4ZM10.3314 512.2C-7.06857 486 -0.268572 444.5 30.5314 388.7C31.5314 386.8 32.3314 385.4 32.7314 384.6C37.0314 375.8 49.2314 335.2 50.8314 329.5C52.1314 329.9 53.1314 330 53.1314 330C53.1314 330 39.4314 376.3 34.8314 385.6C30.4314 394.5 -13.8686 465.5 10.0314 509.7L10.3314 512.2ZM14.0314 510.7L12.8314 507.4L12.2314 501.3L13.7314 505.5L14.0314 510.7ZM18.8314 512.6L16.9314 506.8L16.6314 501L18.8314 507.6V512.6ZM25.0314 513.4L21.9314 506.7V503.7L25.0314 510.4C25.0314 511.6 25.0314 512.6 25.0314 513.4ZM51.4314 594.7C58.8314 580.3 55.1314 526.8 51.0314 515.4C37.2314 485.5 33.8314 460.5 33.0314 448.4C33.6314 446 34.2314 443.8 34.9314 442.1C34.9314 442.1 33.6314 474.4 53.2314 517C57.0314 527.8 60.9314 578.7 54.1314 594.7H51.4314ZM72.1314 594.7L69.8314 544.5C70.7314 538.1 71.3314 532.8 71.2314 530.1L74.1314 594.7H72.1314Z" fill="#DC3545"/>
<path opacity="0.6" d="M67.1314 574.8L82.2314 572.4V588.5L91.7314 597.5H68.6314L67.1314 574.8Z" fill="white"/>
<path opacity="0.6" d="M52.3314 572.4L67.1314 574.8L63.9314 590.4L71.2314 596.6L47.3314 598.1L52.3314 572.4Z" fill="white"/>
<path d="M509.131 589.6C508.631 587.2 506.131 584.9 503.031 583C499.131 579.9 493.231 577.4 490.531 576.3C489.731 574.9 488.631 571.8 487.231 565C484.331 529.8 507.131 486.2 488.331 457.1C484.731 451.6 480.231 447.4 475.231 444.3C466.431 437.9 452.631 432.6 431.131 433.2C435.631 427.4 447.031 413.8 456.031 412.8C468.931 411.4 472.731 418.5 475.831 424.1C477.131 426.4 478.331 428.5 479.931 429.7C477.631 432.1 476.931 435 478.331 436.7C479.031 437.5 479.931 437.8 481.131 437.8C482.731 437.8 484.631 437 486.331 435.6C489.231 433.1 490.231 429.7 488.631 427.8C487.831 426.9 486.531 426.5 485.031 426.7C483.531 426.9 482.031 427.7 480.631 428.8C479.131 427.7 477.931 425.7 476.731 423.4C473.631 417.8 469.431 410.1 455.931 411.6C446.131 412.7 434.031 427.5 429.831 433C426.131 433.1 422.131 433.5 417.931 434C417.131 431.6 415.031 425.6 411.831 419.1C407.931 411.3 401.531 401.1 393.131 396.9C388.331 394.5 383.331 394.3 378.331 396.2C372.531 397.9 369.031 402.8 366.931 406.9C366.231 406.1 365.431 405.6 364.531 405.5C363.331 405.4 362.131 406.1 361.231 407.3C360.331 408.5 359.831 410.1 359.631 411.9C359.531 413.7 359.831 415.4 360.431 416.7C361.131 418.1 362.231 418.9 363.431 419C363.531 419 363.631 419 363.631 419C364.731 419 365.831 418.4 366.731 417.2C367.631 416 368.131 414.4 368.331 412.6C368.431 410.9 368.131 409.2 367.531 407.9C369.431 403.8 372.831 398.7 378.531 397.1C383.331 395.3 388.031 395.5 392.631 397.8C406.431 404.7 414.931 428.3 416.931 434.2C415.431 434.4 413.831 434.6 412.331 434.9V435.4L412.231 434.9C399.731 436.9 391.331 446.4 386.531 454C381.031 462.6 377.231 473.5 376.231 483.1C374.631 499.3 391.531 571.8 393.431 579.9C372.831 579.5 366.431 595.5 366.431 595.6L366.931 596.3L370.031 596.2C369.731 596.8 369.631 597.1 369.631 597.1L428.931 594.7L429.131 586.7C431.831 587.7 441.731 586.3 446.731 585.5L447.631 593.4L448.131 593.8L450.631 593.6L450.731 594.6L509.131 589.6ZM459.931 437.7C449.331 434.8 438.231 434.6 429.631 435.1C429.831 434.8 430.031 434.5 430.331 434.1C442.531 433.8 452.231 435.2 459.931 437.7ZM367.631 595.4C369.131 592.4 375.731 581 392.531 581C393.031 581 393.531 581 394.031 581L394.531 580.4C394.331 579.6 375.531 499.9 377.231 483.3C378.131 473.9 381.931 463.2 387.331 454.6C392.031 447.2 400.231 437.9 412.331 436C413.931 435.7 415.531 435.5 417.131 435.3C417.231 435.5 417.231 435.6 417.231 435.6L418.231 435.3C418.231 435.3 418.231 435.2 418.131 435.1C421.931 434.6 425.531 434.3 428.931 434.2C428.531 434.7 428.331 435.1 428.231 435.2C422.031 435.6 417.231 436.4 414.931 436.8C393.031 440.3 381.031 467.6 379.331 484.5C377.631 501.4 396.631 581.8 396.631 581.8C380.231 581.2 372.831 591 370.431 595.3L367.631 595.4ZM448.431 592.9L447.531 585.5C448.731 585.3 449.531 585.2 449.531 585.2L450.431 592.8L448.431 592.9Z" fill="#DC3545"/>
<g opacity="0.6">
<path opacity="0.6" d="M390.631 575L430.231 587V596.9L363.331 597.8C363.331 597.8 370.231 575.2 390.231 579L390.631 575Z" fill="#F2DDA4"/>
<path opacity="0.6" d="M444.031 596.4L510.931 591.7C510.931 591.7 506.231 575.9 490.431 574.4L490.231 568.8L444.131 586.3V596.4H444.031Z" fill="#F2DDA4"/>
</g>
<path d="M1178.63 418.9L1195.33 392.2L1191.73 393.2L1193.03 391.2L1192.43 390.5L1172.23 396.3C1171.63 395.7 1170.93 395.3 1170.23 395C1169.73 394.6 1169.33 394.2 1168.83 393.8C1164.63 391.1 1159.53 392.9 1155.43 394.3C1154.03 394.8 1152.63 395.3 1151.43 395.5V395.4L1131.13 393.8L1130.63 394.5L1139.13 411.3C1136.53 415.7 1133.53 420.9 1130.13 426.8C1121.73 441.5 1111.43 459.4 1106.73 462.4C1104.33 457.2 1099.33 442.5 1103.83 419.6C1105.43 411.5 1105.23 403.8 1104.03 397.1L1117.13 382L1113.63 382.3L1114.73 381L1114.33 380.2L1097.93 381.5C1095.93 378.6 1093.73 376.4 1091.33 375C1090.73 374.5 1090.03 374 1089.43 373.6C1085.33 371 1080.93 371.2 1077.23 374C1075.43 375.9 1073.73 377.8 1072.23 379.8L1072.33 379.5L1057.03 373.9L1056.43 374.6L1063.83 392.9L1064.73 392.6C1059.73 404 1058.43 416.8 1060.93 430.8C1064.23 448.8 1073.03 465 1079.53 475.8C1077.33 484.6 1073.83 494.9 1070.93 495.8C1070.83 495.6 1070.73 495.5 1070.63 495.3C1065.13 483.7 1068.93 465.2 1062.73 461.4L1063.03 463.1C1062.43 461.6 1061.63 460.4 1060.43 459.7L1059.63 460.2L1060.93 468.3L1039.63 474V475L1042.93 475.7L1042.33 475.9L1052.33 477.9L1059.53 476.9C1059.83 482.6 1061.33 501 1066.83 505.4C1067.63 506 1068.53 506.4 1069.53 506.4C1069.63 506.4 1069.73 506.4 1069.83 506.4C1070.73 507.1 1071.83 507.4 1072.93 507.1C1079.43 505.7 1084.13 496.7 1086.33 491.5C1091.93 511.4 1092.03 541 1092.13 556.2C1092.13 559.1 1092.13 561.4 1092.23 563C1092.53 575.4 1078.83 588.1 1078.73 588.2L1079.03 589.1C1080.23 589.2 1081.93 588.7 1083.73 587.9C1082.53 589.1 1081.73 589.9 1081.73 589.9C1085.03 590.1 1091.53 586.2 1095.63 583.5C1094.83 586.4 1093.33 589.8 1092.53 591.4L1093.23 592L1097.23 589.4C1096.43 591.4 1095.73 592.9 1095.73 592.9L1106.53 585.7L1116.43 595.2L1117.23 594.8V594L1119.43 596.2L1118.83 585L1129.63 595.3L1130.43 594.7C1130.43 594.7 1130.23 594.3 1130.03 593.7L1132.73 596.2C1132.73 596.2 1126.33 582.2 1125.03 556.7C1124.23 540.8 1126.13 521.7 1129.83 506.5L1140.73 516H1141.43C1141.63 515.8 1141.73 515.6 1141.73 515.3L1143.73 517C1145.53 515 1139.53 508.1 1139.53 508.1C1140.53 502.9 1137.53 499 1137.53 499C1142.93 500.4 1163.23 495 1165.53 491C1167.73 487.1 1159.53 463.2 1159.03 461.8C1169.23 449.7 1178.63 435.3 1178.63 418.9ZM1138.93 483.9C1141.63 480.2 1146.43 475.4 1151.73 469.8C1153.53 474.1 1156.43 481.7 1156.13 485.8C1155.83 489.7 1142.83 491.1 1134.73 491.5C1136.03 488.5 1137.43 485.9 1138.93 483.9ZM1133.23 495.4L1130.83 503.1C1131.53 500.4 1132.33 497.8 1133.23 495.4ZM1134.33 492.5C1141.33 492.2 1156.73 491 1157.13 485.8C1157.53 481.4 1154.33 473.2 1152.53 468.9C1152.83 468.5 1153.23 468.2 1153.53 467.8C1154.03 468.8 1159.73 481.4 1159.33 487.1C1158.83 492.9 1135.73 493.4 1133.93 493.4C1134.13 493.2 1134.23 492.8 1134.33 492.5ZM1190.33 393.6L1174.03 398.2C1173.73 397.7 1173.43 397.3 1173.03 397L1191.43 391.7L1190.33 393.6ZM1155.83 395.2C1159.63 393.8 1164.03 392.3 1167.63 394.2C1162.93 393.7 1157.73 396.7 1154.23 397.3L1150.63 397C1151.03 396.7 1151.33 396.5 1151.63 396.5C1152.83 396.3 1154.33 395.8 1155.83 395.2ZM1132.03 394.9L1149.93 396.3C1149.73 396.5 1149.43 396.7 1149.23 396.9L1133.73 395.6L1140.53 409.1C1140.23 409.5 1140.03 409.9 1139.73 410.4L1132.03 394.9ZM1131.13 427.3C1134.53 421.3 1138.03 415.2 1141.23 410.1L1142.53 412.7C1130.33 433 1113.33 466 1107.93 464.6C1107.93 464.6 1107.63 464.1 1107.23 463.3C1111.93 460.4 1120.03 446.8 1131.13 427.3ZM1113.33 381.2L1112.33 382.4L1099.23 383.4C1099.03 383.1 1098.83 382.7 1098.63 382.4L1113.33 381.2ZM1077.93 374.7C1080.93 372.4 1084.23 372.1 1087.53 373.6C1085.13 373.3 1082.63 373.9 1080.33 375.6C1078.53 377.5 1076.83 379.5 1075.33 381.4L1072.93 380.5C1074.43 378.5 1076.13 376.6 1077.93 374.7ZM1057.83 375.2L1059.73 375.9L1065.63 390.5C1065.33 391.1 1065.03 391.7 1064.73 392.4L1057.83 375.2ZM1061.93 430.5C1059.33 416.3 1060.83 403.3 1066.13 391.8L1067.43 395C1055.53 423.6 1069.63 454.2 1080.23 472.7C1080.13 473.2 1079.93 473.8 1079.83 474.3C1073.43 463.5 1065.13 447.8 1061.93 430.5ZM1080.43 476.1L1080.83 475.9C1080.73 475.8 1080.63 475.6 1080.63 475.5C1080.73 474.9 1080.93 474.4 1081.03 473.9C1081.63 474.9 1082.13 475.8 1082.73 476.7C1080.63 484.9 1075.73 501.8 1071.53 496.4C1075.23 494.7 1078.73 483 1080.43 476.1ZM1042.13 474.1L1061.73 468.9L1062.13 468.3L1060.93 461.1C1062.43 462.8 1063.13 466 1063.53 469.8L1045.23 474.7L1042.13 474.1ZM1060.73 476.4L1062.73 476.1C1062.73 476.1 1063.53 498.2 1068.93 504.9C1068.53 504.8 1068.03 504.6 1067.63 504.3C1062.43 500.2 1061.03 481.9 1060.73 476.4ZM1080.63 587.6C1083.93 584.3 1093.73 573.6 1093.43 562.6C1093.43 560.9 1093.33 558.7 1093.33 555.8C1093.23 540.3 1093.13 509.7 1087.13 489.6C1087.73 488.2 1088.03 487.3 1088.03 487.3L1087.73 486.3C1096.63 509.2 1095.33 552.4 1095.63 563.9C1095.83 572.4 1089.73 580.9 1085.53 585.7C1083.73 586.6 1082.03 587.3 1080.63 587.6ZM1094.43 589.8C1095.23 587.9 1096.53 584.8 1097.13 582.2C1098.63 581.2 1099.63 580.5 1099.63 580.5C1099.93 581.9 1099.03 584.8 1098.13 587.3L1094.43 589.8ZM1116.33 593.3L1107.53 584.8L1107.93 584.5L1116.33 592.6V593.3ZM1128.93 592.6L1118.93 583.1V582.5L1128.63 591.7C1128.73 592 1128.83 592.3 1128.93 592.6ZM1141.13 514.4L1130.33 505C1130.33 504.9 1130.33 504.8 1130.43 504.8L1141.23 514.2C1141.13 514.2 1141.13 514.3 1141.13 514.4Z" fill="#DC3545"/>
<g opacity="0.6">
<path opacity="0.6" d="M1118.63 586.7L1133.73 597.3C1131.03 594.6 1127.03 570.8 1127.03 570.8L1117.63 571.4V571.3H1106.23H1105.23L1097.83 571.5H1089.43L1075.83 591.9L1093.43 585.6L1090.33 595.4L1106.23 586.2V585.5L1119.33 597.3L1118.63 586.7Z" fill="#F2DDA4"/>
</g>
<path d="M223.531 484.3C223.531 484.3 221.931 482.5 219.331 480.9C216.031 478.2 208.831 473.5 201.631 477.8C196.731 480.7 199.131 488.9 201.731 497.6C204.331 506.5 207.031 515.6 201.631 518.7C200.431 519.4 199.131 519.4 197.731 518.9C197.231 518.7 196.631 518.4 196.131 518.1C186.731 509.7 177.031 486.4 176.431 485.1C172.531 473.6 169.331 465.9 169.331 465.9L176.031 461.2C175.231 461.4 174.231 461.2 173.031 460.6L173.631 460.2L173.231 459.3C172.331 459.5 171.131 459.1 169.631 458.3C166.931 455.9 163.831 452 161.131 446.5C159.031 442.3 154.931 438.4 150.031 434.9C142.131 428.6 131.531 423.5 124.831 420.3L124.231 420C116.031 416 101.831 418.1 96.3314 421.4C94.6314 422.4 93.7314 423.5 93.6314 424.7C93.5314 427.2 93.5314 427.5 94.6314 427.9C95.3314 428.1 96.7314 428.5 99.5314 431.7C104.431 437.3 109.131 464.2 116.331 505L117.431 511.5C117.631 512.9 117.931 514.3 118.131 515.6C118.231 516.2 118.331 516.8 118.431 517.4C117.531 520.1 116.431 522.7 114.931 525.1C114.031 526.5 112.931 527.8 111.731 529C110.431 530.2 109.131 531.2 107.631 532C104.631 533.7 101.331 534.6 97.9314 535.1C96.2314 535.4 94.5314 535.5 92.8314 535.7C91.1314 535.9 89.3314 535.9 87.6314 536.2C85.9314 536.5 84.1314 537 82.6314 538C81.1314 538.9 79.8314 540.4 79.2314 542.1C78.6314 543.8 78.5314 545.6 78.8314 547.4C79.0314 549.2 79.5314 550.9 80.3314 552.5H81.2314C81.6314 551.7 82.0314 551 82.5314 550.3C83.0314 552.2 83.6314 553.5 83.6314 553.5C86.1314 548.1 89.5314 546.8 92.9314 547.2C94.0314 547.6 95.1314 548 96.2314 548.6L99.0314 550C99.5314 550.2 100.031 550.4 100.531 550.6C101.031 550.8 101.631 551 102.231 551C102.331 551 102.431 551 102.531 551C103.531 551.4 104.331 551.7 104.931 551.7C111.531 551.1 116.931 549.1 121.231 546.2C117.531 581.8 76.8314 580.1 76.4314 580.1L76.2314 581.1C76.3314 581.1 78.6314 582 82.5314 583.2C99.2314 588.8 171.931 610.8 186.031 579.8C191.431 568 191.231 551.3 188.631 534.2C191.231 535.9 194.231 537.4 197.531 538.2C202.131 540 207.631 540.7 213.631 538.7C230.731 533 214.231 500.8 212.931 490.1C212.031 479.6 223.531 484.3 223.531 484.3ZM202.131 519.5C208.231 516.1 205.431 506.5 202.631 497.3C200.131 489 197.831 481.1 202.131 478.6C206.031 476.3 209.931 476.8 213.131 478.2C210.431 477.7 207.531 477.9 204.531 479.6C195.031 485.2 215.631 514.3 204.531 520.5C202.731 521.5 200.831 521.3 198.931 520.2C200.131 520.3 201.231 520.1 202.131 519.5ZM94.7314 427C94.6314 426.8 94.6314 426 94.7314 424.9C94.7314 424.1 95.5314 423.2 96.9314 422.4C102.031 419.3 115.031 417.4 123.031 420.7C112.531 418.2 97.1314 422 96.9314 426.3C96.9314 427 96.9314 427.6 96.9314 427.9C96.0314 427.3 95.4314 427.2 95.0314 427C94.9314 427 94.7314 427 94.7314 427ZM117.431 504.9C109.931 462.5 105.431 437 100.331 431.1C99.7314 430.4 99.1314 429.8 98.6314 429.4C99.5314 429.9 100.831 430.8 102.631 432.9C107.731 438.7 112.431 466.1 120.331 510.4C120.031 512.1 119.731 513.8 119.231 515.4C119.031 514.1 118.731 512.7 118.531 511.4L117.431 504.9ZM81.1314 551.3C80.6314 550.1 80.2314 548.7 80.0314 547.5C79.7314 545.8 79.8314 544.1 80.3314 542.6C80.8314 541 81.9314 539.8 83.3314 538.9C84.7314 538 86.4314 537.5 88.0314 537.2C89.6314 536.9 91.4314 536.9 93.1314 536.7C94.9314 536.6 96.6314 536.4 98.3314 536.1C101.731 535.5 105.231 534.6 108.231 532.8C109.731 532 111.131 530.9 112.431 529.7C113.731 528.4 114.831 527.1 115.731 525.6C116.231 524.8 116.631 524.1 117.031 523.3C117.431 522.5 117.831 521.7 118.131 520.9C118.431 520.2 118.631 519.5 118.931 518.7C119.031 519.3 119.131 519.9 119.231 520.6L120.231 520.4C120.031 519.1 119.831 517.9 119.531 516.6C119.631 516.4 119.631 516.2 119.731 516C120.131 514.5 120.431 513.1 120.631 511.6C121.031 513.7 121.431 515.9 121.731 518.1C116.931 534.1 106.131 536.9 93.3314 537.7C82.4314 538.4 81.6314 544.7 82.4314 549.2C81.9314 549.9 81.5314 550.6 81.1314 551.3ZM122.631 545.6C123.531 545 124.331 544.3 125.031 543.6C124.231 578 92.5314 581.8 82.4314 582.1C81.3314 581.8 80.4314 581.4 79.6314 581.2C89.4314 580.8 119.831 577.1 122.631 545.6Z" fill="#DC3545"/>
<g opacity="0.6">
<path opacity="0.6" d="M100.231 436.8L121.131 417.7L98.5314 407.6C98.5314 407.6 108.531 391.5 100.031 389C91.5314 386.5 79.5314 415.8 79.5314 415.8L100.231 436.8Z" fill="#F2DDA4"/>
</g>
<path d="M420.731 566.3C420.731 565.9 420.431 565.8 420.131 565.6C419.631 565.4 419.031 565.3 418.331 565.2C410.731 562.8 384.231 553.1 377.231 549.2C376.631 548.2 375.731 546.2 374.631 543.5C375.831 543 377.531 542.2 379.331 541.3C383.531 539.8 387.131 538.1 387.331 536.8C387.331 536.8 386.631 536.7 385.531 536.5C385.631 536.3 385.731 536.1 385.731 535.8L385.231 535.3C385.131 535.3 376.131 534.3 371.231 531.2C371.031 531 370.731 530.7 370.531 530.5C369.531 525.5 369.031 520.1 369.931 515.1C372.331 501.1 370.731 470.1 370.731 470.1H378.631C378.631 470.1 371.331 456.3 369.131 447.3C367.631 441.3 365.731 418.8 351.631 408.3C346.431 403.7 339.531 400.8 330.031 401.3C324.231 401.6 318.531 403.1 313.231 405.7C306.131 409.1 295.531 414.8 295.431 414.8L295.131 415.2C295.131 415.9 290.831 487.6 301.931 526.4V527C301.931 528.6 301.931 530.5 301.831 532.5C300.931 533.8 292.931 545 281.231 545.1L281.031 546.1C281.431 546.2 288.931 548.9 294.931 548.9C295.631 548.9 296.231 548.9 296.831 548.8C296.931 548.8 297.131 548.8 297.231 548.8C294.631 553 290.431 556.5 284.031 558.4C265.331 563.8 256.231 571.5 256.131 571.6L256.531 572.5L260.831 571.5C259.331 572.5 258.631 573.1 258.631 573.1L311.831 560.3C304.231 567.5 284.831 586.4 283.931 592.9L284.631 593.4C284.731 593.4 285.631 592.8 287.331 592C286.931 592.8 286.731 593.5 286.631 594.1C286.631 594.1 323.331 574.5 330.931 573.2C338.131 571.9 349.231 564 351.731 557.7C355.431 560.6 363.431 566.2 373.131 568.6C377.431 569.9 382.031 570.6 386.831 570.2C397.431 569.2 414.131 566 420.431 566.8C420.331 566.8 420.231 566.7 420.131 566.7L420.731 566.3ZM384.331 536.4C383.231 536.2 381.831 535.9 380.431 535.6C382.131 536 383.631 536.2 384.431 536.3C384.431 536.3 384.331 536.3 384.331 536.4ZM296.131 415.5C297.731 414.6 307.131 409.6 313.631 406.5C318.831 403.9 324.331 402.4 330.031 402.2C334.131 402 337.731 402.5 340.931 403.5C338.331 402.9 335.431 402.7 332.231 402.8C326.431 403.1 320.831 404.6 315.631 407.2C308.431 410.6 297.831 416.3 297.831 416.3C297.831 416.3 293.431 488.2 304.631 527.4C304.631 529.4 304.631 532.1 304.431 535C303.831 535.6 303.131 536.3 302.431 537.1C302.931 533.3 302.931 529.7 302.931 527V526.4V526.3C292.231 488.7 295.831 420.4 296.131 415.5ZM301.731 534.3C301.631 535.6 301.431 536.9 301.231 538.2C297.431 541.7 291.931 545.5 285.831 546.5C285.031 546.3 284.331 546.1 283.731 545.9C292.731 544.6 299.231 537.4 301.731 534.3ZM258.731 571C262.231 568.5 270.731 563.3 284.331 559.4C291.331 557.4 295.731 553.5 298.431 549C299.131 549.1 299.831 549.2 300.531 549.2C297.931 553.9 293.531 557.9 286.331 560C275.331 563.2 267.731 567.1 263.331 569.8L258.731 571ZM285.331 592C288.031 584.5 307.931 565.4 313.931 559.8L317.531 558.9C317.531 558.9 294.731 579.9 288.431 590.3C287.031 591.1 286.031 591.7 285.331 592ZM352.231 556.7C352.231 556.7 352.231 556.6 352.231 556.7C352.231 556.6 352.631 557 353.431 557.6C352.931 557.3 352.531 557 352.231 556.7Z" fill="#DC3545"/>
<g opacity="0.6">
<path opacity="0.6" d="M321.231 577.4C321.231 577.4 313.331 566.2 303.431 565.4L284.331 580.6C284.331 580.6 274.231 573.5 272.231 579.3C270.231 585.1 285.231 597 285.231 597L321.231 577.4Z" fill="#F2DDA4"/>
</g>
<path d="M276.031 522C264.231 495.1 259.131 484.9 259.331 475.4C259.531 467.3 260.531 440.5 260.831 432.7C268.431 430 273.431 423.5 264.931 414.4C263.831 413.2 262.731 412.4 261.531 411.8C257.131 407.9 251.631 407.8 246.531 411.7C241.531 415.6 238.731 422 240.731 425.2C244.031 430.7 247.931 432.9 250.731 433.2C250.931 433.3 251.131 433.4 251.331 433.5C251.631 439.1 253.131 477.7 243.331 484.4C242.731 484.8 242.131 485 241.531 484.9C235.231 476.7 232.731 443.5 232.131 435.8C233.031 435 233.731 434.1 234.231 432.9C236.731 426.5 235.431 418.6 229.631 415.7C227.831 413.9 225.331 412.9 222.431 412.8C216.831 412.6 211.631 414.6 208.931 418.2C206.931 420.8 206.431 423.9 207.431 427C209.831 434.9 215.431 436.8 215.631 436.9H215.731C215.831 436.9 216.531 437.1 217.531 437.2C218.131 437.6 218.631 437.7 218.631 437.7C218.631 437.7 220.831 438.2 223.531 438.2C224.031 444.8 225.731 475.9 218.931 488.9C217.931 490.9 216.531 493.2 214.931 496C205.031 513.2 186.631 545.2 204.931 564.1C209.031 568.4 213.831 571.8 219.131 574.2L219.331 573.7C238.031 583.8 258.431 577.7 265.031 573.7C270.031 570.7 277.531 561.9 279.831 549.2L282.531 552.2C285.831 535.1 276.031 522 276.031 522ZM241.631 424.6C239.931 421.9 242.631 416 247.131 412.5C248.531 411.4 251.131 409.8 254.231 409.8C255.431 409.8 256.731 410.1 258.031 410.7C249.131 409.6 240.931 421.7 243.831 426.2C245.031 428.3 246.331 429.9 247.631 431.1C245.831 430 243.631 427.9 241.631 424.6ZM208.431 426.6C207.531 423.8 208.031 421 209.831 418.7C212.431 415.4 217.231 413.4 222.531 413.7C224.031 413.8 225.331 414.1 226.531 414.6C226.131 414.5 225.731 414.5 225.231 414.5C215.731 414.1 208.231 420.4 210.631 428.1C211.731 431.8 213.631 434.1 215.231 435.6C213.731 434.7 210.131 432.2 208.431 426.6ZM221.831 490.4C214.031 505.3 186.931 543.5 207.831 565C209.531 566.7 211.231 568.2 213.031 569.6C210.331 567.8 207.931 565.7 205.631 563.3C187.731 544.9 205.231 514.5 215.731 496.4C217.331 493.7 218.631 491.3 219.731 489.3C226.731 475.9 225.031 445 224.531 438.1C225.331 438.1 226.031 438 226.831 437.9C227.331 448.6 228.131 478.3 221.831 490.4ZM246.331 486C244.931 486.9 243.631 486.8 242.431 485.7C242.931 485.6 243.431 485.4 243.831 485.1C254.031 478.2 252.631 440.8 252.331 433.7C253.131 433.9 253.831 434 254.431 433.9C254.531 434 257.231 478.6 246.331 486Z" fill="#DC3545"/>
<g opacity="0.6">
<path opacity="0.6" d="M237.631 580.3L261.431 575.7C261.431 575.7 258.931 587.9 256.531 588.9C256.531 588.9 262.531 593.4 262.731 596.2L238.231 597.5L237.631 580.3Z" fill="#F2DDA4"/>
<path opacity="0.6" d="M217.331 575.7L238.931 579.4C238.931 579.4 237.431 588.6 236.031 590.7C236.031 590.7 241.531 594.6 241.531 597.6H217.631L217.331 575.7Z" fill="#F2DDA4"/>
</g>
<path d="M926.331 546.1L922.631 545.6L923.931 545L923.831 544.1H923.731V544L923.531 544.1L920.831 543.7C925.931 539.2 939.731 525 926.231 512.4C925.731 512 925.131 511.6 924.531 511.2C924.031 510.7 923.431 510.2 922.931 509.8C921.931 509.1 920.831 508.5 919.731 508C918.731 507.5 917.731 507.1 916.731 506.8C915.131 496.9 910.431 488.1 901.431 482.8L911.531 470.6L894.531 444.4L894.031 445.2L892.431 442.8H891.631L882.431 457L882.731 457.8L885.531 458.4L885.431 458.6L889.231 459.4L894.231 456.7L895.431 459.2L878.731 475.5C840.531 470.2 793.731 475.2 776.531 477.9L772.531 466.7H778.831L778.731 468.5L779.031 469L781.931 470L782.131 469.9L784.531 470.7L786.431 465.5L784.231 463.9L770.031 453.8H769.531L746.931 465.5L746.731 466.2L756.431 484.4C746.531 489.7 740.331 497.6 738.231 507.9C738.131 508.5 738.031 509 737.931 509.6C736.031 510.6 726.231 516.4 723.831 524.5C722.831 527.9 723.231 531.3 725.131 534.6C728.331 538.6 735.831 541.9 737.831 542.7C737.431 544 736.531 547.9 739.131 550.5L733.531 557.6L734.231 558.3L741.831 552.4L736.431 559.2L748.331 549.9C748.731 550.4 749.031 550.9 749.431 551.3C750.931 553.1 754.331 554.7 758.931 556C762.331 557.2 766.631 558.2 771.731 559C771.831 561.8 772.531 569.1 777.031 573.7C779.131 575.9 781.931 577.1 785.131 577.4C785.531 577.5 785.931 577.6 786.331 577.7C786.031 580.6 784.431 590.4 779.231 592.5L779.431 593.5H783.131C782.731 593.7 782.431 593.9 782.031 594.1H797.031V561.8C811.931 562.8 828.531 563.2 844.031 563.2C844.931 569.7 847.731 578.9 856.131 580.4C856.731 580.7 857.431 580.9 858.131 581.1C857.731 584.2 856.231 593.6 851.031 595.7L851.231 596.7H855.231C854.831 597 854.331 597.3 853.831 597.5H868.831V562.9C881.931 562.4 892.131 561.6 896.731 560.6C901.131 559.7 905.631 555.1 909.331 548.6L919.131 555.9L919.531 556L920.431 555.9L922.031 557.1L927.931 556.3L920.631 548.8L926.331 546.1ZM886.131 457.5L883.731 457L892.131 444.1L893.531 446.2L886.131 457.5ZM779.731 466.7H781.831L781.731 468.9L779.731 468.2V466.7ZM725.831 534.1C724.131 531.1 723.731 527.9 724.631 524.8C726.731 517.8 734.831 512.5 737.631 510.8C737.531 511.6 737.431 512.4 737.431 513.3C731.931 517.1 722.231 525.6 728.031 535.7C728.531 536.3 729.031 536.8 729.631 537.4C728.131 536.3 726.831 535.2 725.831 534.1ZM736.831 554.9L740.131 550.7L740.031 550C737.231 547.8 738.431 543.7 738.731 542.8C740.031 543.4 740.831 543.7 740.831 543.7C740.831 543.7 739.031 548.3 741.631 551.1L736.831 554.9ZM732.931 534C731.231 532.5 730.131 530.8 730.231 529C730.631 525 734.531 522.1 737.431 520.5C738.031 527 739.831 533.3 742.031 538.7C739.531 537.7 735.831 536 732.931 534ZM744.131 540.4L743.631 539.5L743.331 539.3C740.931 533.7 738.931 527 738.431 520.1C739.431 519.6 740.131 519.3 740.331 519.2C740.631 527 742.831 534.7 745.531 541C745.331 540.9 744.831 540.7 744.131 540.4ZM750.031 550.7C749.731 550.3 749.331 549.8 748.931 549.3L749.631 548.7C750.431 550 751.231 551.2 752.031 552.2C752.131 552.3 752.231 552.5 752.431 552.6C751.431 552 750.531 551.4 750.031 550.7ZM740.731 511.1C740.531 511.2 739.731 511.6 738.631 512.3L738.731 509.8H738.631C738.731 509.2 738.831 508.6 738.931 508C741.031 498 746.931 490.4 756.631 485.2L757.431 486.7C747.031 492.9 742.231 501.8 740.731 511.1ZM759.531 485.7C759.231 485.9 758.831 486.1 758.531 486.2L747.831 466.1L769.731 454.8L771.331 455.9L749.731 467.1L759.531 485.7ZM777.531 573C773.431 568.8 772.731 562 772.531 559.2C773.231 559.3 774.031 559.4 774.831 559.6C775.331 564.4 776.931 572 781.831 575.8C780.231 575.2 778.731 574.2 777.531 573ZM784.231 592.5H781.131C785.531 589.1 786.831 580.8 787.131 578C787.831 578.1 788.531 578.2 789.331 578.1C789.331 578.1 788.531 588.1 784.231 592.5ZM844.831 563.2C845.431 563.2 846.031 563.2 846.731 563.2C847.231 567.7 848.631 574.3 852.731 578.2C847.531 575.2 845.531 568.4 844.831 563.2ZM856.131 595.5H852.831C857.131 592.2 858.531 584.1 858.831 581.2C859.531 581.3 860.231 581.4 861.031 581.3C861.131 581.3 860.431 591 856.131 595.5ZM877.431 476.7C839.331 472.2 793.831 477.1 777.231 479.9L776.831 478.8C794.031 476.1 840.031 471.2 877.831 476.3L877.431 476.7ZM881.431 477.3C880.531 477.2 879.631 477.1 878.731 476.9L896.431 459.7L896.531 459.1L895.131 456.2L896.131 455.6L898.531 460.6L881.431 477.3ZM919.731 508.3C920.831 508.8 921.831 509.4 922.831 510.1C922.831 510.1 922.831 510.1 922.931 510.2C921.031 509.2 919.031 508.5 917.031 507.9C917.031 507.7 916.931 507.4 916.931 507.2C917.831 507.5 918.831 507.9 919.731 508.3ZM917.531 514.5C918.031 515 918.531 515.5 919.031 516.1C920.831 518.3 921.931 521.1 921.931 524C921.931 526.8 920.931 529.6 919.631 532.2C918.631 533.4 917.231 534.4 915.831 535.3C915.331 535.6 914.831 536 914.331 536.3C916.431 529.4 917.731 521.9 917.531 514.5ZM912.731 540.7C913.131 539.8 913.431 538.8 913.731 537.8C914.631 537.3 915.431 536.7 916.231 536.2C917.631 535.3 919.031 534.3 920.131 532.9C921.431 530.2 922.431 527.3 922.431 524.3C922.431 521.3 921.231 518.3 919.331 516.1C918.731 515.5 918.131 514.9 917.431 514.3C917.431 514.1 917.431 514 917.431 513.8C923.031 517.5 927.631 523.8 922.331 534C921.131 535.8 916.731 538.5 912.731 540.7ZM919.231 545.1C919.231 545.1 919.631 544.8 920.131 544.3L922.131 544.6L920.631 545.3L919.231 545.1Z" fill="#DC3545"/>
<g opacity="0.6">
<path opacity="0.6" d="M781.631 578.1L797.431 577.8L796.831 594.2H777.531C777.531 594.2 783.731 584.9 781.631 578.1Z" fill="#F2DDA4"/>
<path opacity="0.6" d="M853.631 581.3L869.431 581L868.831 597.4H849.531C849.531 597.4 855.731 588 853.631 581.3Z" fill="#F2DDA4"/>
</g>
<path d="M1009.73 545.4C1009.73 545.2 1009.73 545.1 1009.83 544.9L1009.63 544.5C1009.43 544.4 1009.13 544.3 1008.83 544.1C1009.63 542.1 1010.13 539.9 1007.93 540.7L1007.23 541.4C1007.33 541 1007.43 540.5 1007.43 540C1007.33 539.8 1007.33 539.5 1007.13 539.3C1007.03 539.2 1006.93 539.1 1006.73 539C1006.93 537.7 1006.73 536.8 1005.53 537.4C1005.23 537.5 1004.93 537.7 1004.63 537.9C1004.73 537.5 1004.73 537.1 1004.73 536.7C1004.73 536.5 1004.73 536.3 1004.63 536.1C1004.53 535.9 1004.43 535.6 1004.13 535.5C1003.63 535.3 1003.23 535.5 1002.93 535.6H1003.03C1002.53 535.8 1002.03 536.1 1001.63 536.5C1001.63 536.3 1001.63 536.1 1001.53 535.9C1001.53 535.8 1001.53 535.7 1001.43 535.6C1001.33 535.5 1001.23 535.4 1001.13 535.3C1000.93 535.1 1000.63 535.1 1000.43 535.1C998.931 535.4 998.031 536.3 997.331 537.4C996.631 538.4 996.231 539.6 995.731 540.7C995.431 541.4 995.131 542 994.731 542.6C994.531 542.5 994.331 542.4 994.131 542.4C994.031 542.1 993.831 541.9 993.631 541.6C993.131 541 992.331 540.6 991.531 540.5C991.431 540.5 991.231 540.5 991.131 540.5L991.331 539.7C991.331 539.7 992.431 524.6 993.531 507.7C994.731 508.2 995.931 509.1 996.631 510.4C997.331 511.6 997.831 513.4 996.431 515.8L997.331 516.3C998.931 513.5 998.331 511.3 997.531 509.9C996.631 508.3 995.131 507.2 993.631 506.7C994.931 486.7 996.231 464.6 995.631 462.3C995.331 461 994.531 458.6 992.831 455.8L999.831 439.5L996.931 441.5L998.331 438.3L997.631 437.7L983.731 447.1C979.231 444.5 973.131 442.5 964.931 442.2L957.831 420.1L957.231 421.5L956.331 418.5H955.431L946.131 441.2V441.6C946.131 441.6 946.131 441.7 946.231 441.7C941.131 443 936.531 444.9 932.431 447.4V447L917.231 435.1L916.431 435.6L919.631 457.8L920.531 458C919.431 459.5 918.431 461 917.531 462.6C911.831 472.6 910.131 484.9 912.731 497.2V497.3C912.731 497.4 915.231 502.9 917.431 510.1H904.631C903.831 509.1 902.931 508.3 902.131 507.7L903.931 505.9C905.031 507 906.731 508.3 908.431 508.6C909.831 509.4 911.431 509.9 913.031 509.1C914.031 508.3 914.031 503.5 910.731 501.2C909.431 499.4 907.431 498.3 904.931 498.3C902.631 498.3 890.331 513.7 886.631 518.4V519C887.031 519.6 894.531 531 903.231 533.5C905.231 534.4 907.231 534.9 909.331 534.7C913.731 534.3 917.731 531.6 920.931 528.8C920.931 529.6 920.931 530.4 920.831 531.2L921.431 531.7L923.331 531.2C923.331 531.7 923.331 532.1 923.231 532.6L928.331 531.2C929.331 532.8 931.231 535.5 934.431 538.6C934.831 539 935.231 539.3 935.631 539.7C934.631 541.6 929.731 552.1 932.331 556.5C933.131 557.8 934.831 559.1 937.031 560.8C942.931 565.2 951.731 571.9 950.031 585.5C950.031 588.6 940.331 592.5 936.531 593.7L936.731 594.7H940.931C939.631 595.2 938.731 595.5 938.731 595.5H960.031V566.9C960.031 566.9 959.431 566.5 958.531 565.7V565.6L958.331 565.2C958.331 565.2 957.731 564.8 956.831 564C954.231 561 951.431 556.1 954.531 550.3C956.331 551 958.231 551.6 960.231 552.1C961.531 554.7 967.431 566.1 977.631 571.8C978.731 573.1 979.231 576.1 978.131 579.7C977.131 583.1 973.931 589.3 964.031 591.8L963.931 592.7L967.531 594.5L967.731 594.6H968.131L969.731 595.4H989.031V568.8C989.031 568.8 975.731 556.6 985.531 550.1C985.731 550.3 985.931 550.6 986.231 550.8C986.531 551 986.831 551.3 987.131 551.5L988.131 552.1C989.831 553 991.631 553.7 993.531 554.1C1002.33 557.5 1011.93 553.8 1012.03 546.3C1012.03 546.2 1010.93 545.5 1009.73 545.4ZM1009.43 545.2C1009.43 545.3 1009.43 545.4 1009.43 545.5C1008.73 545.6 1008.13 545.9 1007.63 546.8C1007.83 546.5 1008.23 545.8 1008.53 544.9C1008.83 544.9 1009.13 545 1009.43 545.2ZM1006.83 540C1006.93 540.4 1006.73 541.1 1006.53 541.7C1006.43 541.9 1006.33 542.2 1006.23 542.4L1005.53 543.2C1005.53 543.2 1006.23 541.3 1006.63 539.7C1006.73 539.7 1006.73 539.7 1006.83 540ZM1003.53 536.4C1003.83 536.3 1004.13 536.3 1004.13 536.3C1004.13 536.3 1004.23 536.4 1004.23 536.7C1004.23 537.2 1004.13 537.7 1004.03 538.3C1004.03 538.4 1003.93 538.5 1003.93 538.6C1003.63 539 1003.43 539.4 1003.33 539.7C1003.63 538.8 1004.13 536.4 1002.43 537C1002.83 536.8 1003.13 536.6 1003.53 536.4ZM996.631 541C997.131 539.9 997.631 538.8 998.231 537.8C998.531 537.4 998.931 537 999.331 536.6C999.831 536.3 1000.33 535.9 1000.73 535.9C1000.93 535.9 1000.93 535.9 1001.03 536.1C1001.03 536.3 1001.03 536.5 1001.03 536.8C1001.03 537.1 1000.93 537.3 1000.93 537.6C1000.93 537.6 1000.93 537.7 1000.83 537.7C1000.63 538 1000.53 538.2 1000.43 538.6C998.831 540.6 998.531 543.7 996.431 545.3C996.431 545.3 996.431 544 995.431 543.1C995.931 542.4 996.331 541.7 996.631 541ZM991.431 541.1C992.131 541.2 992.731 541.5 993.131 542C993.231 542.1 993.231 542.2 993.331 542.2C993.031 542.2 992.731 542.2 992.331 542.2C991.931 542.2 991.331 542.2 990.631 541.9L990.831 541C991.031 541 991.231 541 991.431 541.1ZM996.631 439.4L995.331 442.5L986.131 448.7C985.631 448.3 985.131 448 984.531 447.6L996.631 439.4ZM947.031 441.3L955.731 420.1L956.631 422.9L948.531 442.7C948.531 442.7 948.631 442.9 948.931 443.3C948.831 443.3 948.731 443.3 948.731 443.3C948.031 442.5 947.531 441.8 947.231 441.4V441.3C947.031 441.4 947.031 441.3 947.031 441.3ZM946.631 442.6C946.831 442.9 947.131 443.3 947.431 443.6C942.331 444.7 937.831 446.4 933.931 448.7L933.131 448.1C937.131 445.6 941.731 443.8 946.631 442.6ZM911.531 523.5C912.331 523.9 913.131 524.2 914.031 524.4C912.031 526.1 909.731 527.5 907.131 527.7C904.631 527.9 902.131 526.9 899.731 524.8C899.431 524.5 899.131 524.1 898.831 523.7C898.831 523.7 904.131 523.6 906.931 521C908.131 522.1 909.631 523 911.531 523.5ZM907.231 528.8C910.331 528.6 913.131 526.8 915.331 524.8C916.131 524.9 916.931 525 917.731 525C914.431 528.3 909.631 531.4 904.231 528.6C905.231 528.8 906.231 528.9 907.231 528.8ZM920.131 511.9H919.031C918.931 511.6 918.831 511.4 918.831 511.1H919.931C919.931 511.4 920.031 511.6 920.131 511.9ZM907.631 520.3C907.731 520.3 907.731 520.4 907.831 520.4C907.731 520.4 907.631 520.4 907.631 520.3ZM924.531 456.2C926.531 453.9 929.731 450.9 933.331 449.1C929.831 451.1 926.931 453.5 924.531 456.2ZM917.631 436.7L919.131 437.8L921.631 455.1C921.231 455.6 920.831 456.1 920.531 456.4L917.631 436.7ZM920.831 457.6C920.731 457.7 920.731 457.8 920.631 457.9C920.631 457.8 920.731 457.8 920.831 457.6ZM913.731 496.9C911.131 484.8 912.831 472.8 918.431 463C919.531 461.1 920.731 459.4 922.031 457.7L922.231 459C914.331 469.6 912.231 483.9 915.331 498.3C915.331 498.3 917.531 503.3 919.731 510H918.631C916.431 503 913.931 497.5 913.731 496.9ZM917.931 511.9H906.331C906.131 511.6 905.831 511.4 905.631 511.1H917.731C917.831 511.4 917.931 511.6 917.931 511.9ZM904.531 505.1L904.631 505C904.631 505 904.831 505.4 905.331 505.8C905.031 505.6 904.731 505.4 904.531 505.1ZM887.531 518.6C895.031 509.1 903.431 499.4 904.831 499.2C906.331 499.2 907.431 499.6 908.331 500.2C907.831 500.1 907.431 500 906.831 500C906.231 500 904.731 501.4 902.831 503.4H902.231L899.331 506.4L899.431 507.2C894.431 512.9 888.831 520 888.831 520C888.831 520 890.831 523.1 894.031 526.5C890.731 523.1 888.231 519.6 887.531 518.6ZM921.631 530.4C921.631 529.5 921.731 528.6 921.631 527.7C922.131 527.3 922.531 526.8 922.931 526.4L922.631 524.2H922.731C923.031 526.2 923.131 528.1 923.131 530L921.631 530.4ZM929.231 530.7L929.831 530.5C929.831 530.5 931.231 533.7 935.131 537.7C935.131 537.7 935.131 537.7 935.031 537.6C932.031 534.8 930.231 532.3 929.231 530.7ZM933.031 555.7C930.831 551.9 935.131 542.4 936.331 540.1C936.831 540.5 937.331 540.9 937.831 541.3C936.631 543.9 932.331 553.3 934.631 557.2C934.731 557.3 934.831 557.5 934.931 557.6C934.031 557 933.431 556.4 933.031 555.7ZM939.531 593.5C943.731 591.9 950.931 588.7 950.931 585.4C952.031 576.5 948.831 570.4 944.831 566.1C949.531 570.5 953.731 576.8 952.431 586.7C952.431 589.2 947.331 591.9 943.331 593.6H939.531V593.5ZM961.531 552.3C961.831 552.4 962.131 552.5 962.431 552.5C962.431 552.5 965.431 559.5 971.431 565.8C966.131 560.7 962.831 554.8 961.531 552.3ZM979.031 579.9C979.931 576.9 979.831 574 978.931 572C979.231 572.2 979.531 572.4 979.931 572.6C982.731 575.7 981.731 588.8 967.231 593.2L965.531 592.3C975.231 589.4 978.231 582.7 979.031 579.9ZM986.731 549.3C986.831 549.2 986.931 549.2 987.031 549.1C987.331 549.6 987.631 550 988.031 550.4C987.531 550.1 987.131 549.7 986.731 549.3Z" fill="#DC3545"/>
<g opacity="0.6">
<path opacity="0.6" d="M948.931 581.2H960.631L961.631 596.4L934.531 595.8L935.031 592.8C935.031 592.8 951.131 591.6 948.931 581.2Z" fill="#F2DDA4"/>
<path opacity="0.6" d="M963.231 596.4L962.431 591.5C962.431 591.5 976.831 587.5 976.831 579.2H989.231V596.5L963.231 596.4Z" fill="#F2DDA4"/>
</g>
<path opacity="0.6" d="M542.531 597.4H541.431C541.831 597.6 542.231 597.6 542.531 597.4Z" fill="#DC3545"/>
<path d="M623.331 489.7C622.931 489.4 622.331 489.5 621.631 489.7C621.631 489.5 621.731 489.3 621.731 489C621.731 488.7 621.531 488.4 621.331 488.3C621.231 488.2 621.131 488.1 621.031 488.1C620.931 488 620.831 488 620.731 488C620.431 488 620.331 488 620.131 488C620.031 488 619.931 488 619.931 488C620.231 487.3 620.131 486.7 619.331 486.6C619.031 486.5 618.631 486.6 618.131 486.7C618.231 486.4 618.231 486.2 618.231 485.9C618.131 485.6 617.931 485.4 617.731 485.2C617.431 485.1 617.231 485 617.031 485C616.531 484.9 616.231 485 615.831 485.1C614.431 485.5 613.231 486.3 612.131 487.1C611.631 487.4 611.231 487.8 610.731 488.2C610.131 486.8 609.331 485.6 608.731 485.6C608.631 485.6 608.531 485.7 608.431 485.9C608.131 485.4 607.831 484.8 607.231 484.4C607.031 484.2 606.831 484.1 606.531 484.1C606.531 484.1 606.331 484.1 606.231 484.2C606.131 484.3 606.131 484.3 606.031 484.4C605.931 484.5 605.831 484.6 605.831 484.7C605.731 485.1 605.631 485.5 605.631 485.8C605.531 487.1 605.631 488.5 605.731 489.8C605.831 491.1 605.931 492.3 606.131 493.5C595.731 498.6 585.331 503.8 574.931 509C574.731 508.5 574.631 508 574.431 507.5H573.531L571.231 514.2L566.931 504.1L566.731 506.5L565.231 502.9L564.231 503.1L562.731 519.9L559.131 517.2L557.231 515.8L556.431 516L552.731 524L551.531 521.8L551.131 523.1L549.731 520.6L548.831 520.7L547.931 523.9L543.931 518.2L543.831 519.2L542.231 516.9L541.331 517.1L539.831 527.9C539.231 527.7 538.131 527.2 536.831 526.4C535.631 525.5 534.331 524.3 533.131 522.8C533.531 521.4 534.731 517.5 536.231 514.6C536.731 513.7 537.231 513.2 537.931 513.1C538.431 513.2 539.031 513.4 539.831 513.6C541.231 514.1 542.931 514.7 545.031 514.7C545.231 514.7 545.431 514.7 545.531 514.7C545.731 514.7 545.931 514.7 546.131 514.7C550.031 514.8 549.931 511.6 549.731 509.9C550.231 510.1 550.731 510.2 551.331 510.1C551.431 510.1 551.531 510.1 551.631 510.1C554.931 510.7 558.231 505.8 558.231 505.8C558.231 505.8 557.831 505.8 557.331 505.9C557.431 505.7 557.531 505.6 557.531 505.6L557.131 504.8C557.031 504.8 554.731 504.8 552.231 506.8C551.531 507.3 550.731 506.8 549.631 505.9C548.731 505.2 547.831 504.5 546.931 504.8C546.231 505 545.731 505.8 545.331 507.1C544.131 510.8 543.231 510.6 539.931 510.2C538.931 510 537.631 509.9 536.031 509.8C534.531 509.7 533.131 510.2 532.131 511.2C530.731 512.5 529.931 514.5 529.531 516.3C527.431 511.2 526.431 504.4 527.931 495.3L531.631 504.8L532.631 504.7L532.931 502.1L534.331 505.6L535.931 493.6L540.931 500.5L541.831 500.2V498.8L543.531 501.2L543.231 493.9L555.431 503.5L556.231 502.9L556.131 502.6L557.931 504L553.831 492.2L563.431 498.1L564.131 497.6L565.931 498.7L561.631 485L576.831 493.3L577.331 492.9L579.231 494C579.231 494 572.931 471.1 561.331 462.9C558.431 460.3 555.331 458.8 552.131 458.5C546.831 458 539.031 458.8 531.031 461C529.331 459.8 527.331 458.5 525.231 457.2C516.831 452.4 509.531 451.2 503.931 453.5C500.531 454.9 497.831 457.6 495.731 461.6C492.431 459.8 489.231 459.1 486.131 459.4C478.531 460.2 472.231 467.8 467.431 481.9C465.131 482.1 463.331 483.9 463.331 486.3C463.331 488.7 465.331 490.7 467.731 490.7C470.131 490.7 472.131 488.7 472.131 486.3C472.131 484.1 470.531 482.3 468.431 482C473.131 468.5 479.031 461.3 486.231 460.5C489.231 460.2 492.331 461 495.231 462.6C492.431 468.3 490.831 476.5 490.431 487C488.231 487.2 486.531 489.1 486.531 491.4C486.531 493.8 488.531 495.8 490.931 495.8C493.331 495.8 495.331 493.8 495.331 491.4C495.331 489.2 493.631 487.3 491.431 487.1C491.831 476.8 493.331 468.8 496.031 463.2C500.331 465.7 504.331 469.7 507.431 473.4C507.131 473.7 506.831 474 506.431 474.3C499.831 480.8 496.831 488.6 497.631 497.4C497.931 500.7 498.431 504.2 499.231 508.1C496.231 506.8 493.231 505.6 490.131 504.5C482.731 501.8 475.131 499.6 467.431 497.6C466.431 495.9 464.331 492.6 463.131 492.4C462.931 492.2 462.831 492 462.631 491.9C462.331 491.7 462.131 491.5 461.831 491.3C461.731 491.2 461.531 491.1 461.331 491.1C461.131 491.1 460.831 491.1 460.631 491.2C460.231 491.3 460.031 491.8 459.931 492.1C459.831 492.5 459.831 492.8 459.831 493.1C459.831 493.9 459.931 494.7 460.231 495.5C459.031 494.8 457.831 494.2 456.531 493.7C455.731 493.4 454.831 493.1 453.931 493C453.531 492.9 452.931 492.9 452.431 493.2C451.831 493.5 451.531 494.2 451.731 494.8C451.831 495.4 452.231 495.8 452.531 496.1C452.931 496.4 453.231 496.7 453.631 496.9C454.331 497.3 455.131 497.7 455.931 498.1C456.631 498.5 457.331 498.8 458.131 499.1C457.631 499.1 457.131 499.2 456.531 499.2C455.831 499.3 455.031 499.4 454.331 499.6C453.631 499.8 452.831 500.1 452.231 500.7C451.931 501 451.731 501.4 451.631 501.9C451.631 502.1 451.631 502.3 451.731 502.6C451.831 502.9 452.031 503.2 452.231 503.3C452.631 503.5 452.931 503.6 453.231 503.6C452.831 503.8 452.531 504.1 452.231 504.5C452.131 504.7 452.031 505 451.931 505.2C451.831 505.5 451.831 505.7 451.931 506.1C452.031 506.4 452.331 506.6 452.631 506.7C452.831 506.8 453.131 506.8 453.331 506.8C453.631 506.8 453.931 506.7 454.231 506.7V506.8C454.331 507.9 456.731 507.3 459.031 506.4C459.031 506.4 459.031 506.4 459.031 506.5C458.731 507.2 458.531 508.1 458.831 508.9C458.831 509.1 459.031 509.4 459.331 509.5C459.631 509.6 459.931 509.6 460.131 509.5C460.531 509.4 460.831 509.1 461.131 508.9C461.131 509.2 461.231 509.5 461.331 509.8C462.331 511.9 468.331 503 468.331 503C468.831 502.8 469.931 502.9 471.331 503.3C471.531 503.4 471.731 503.4 472.031 503.5C473.931 504.1 475.931 504.8 477.831 505.5C481.631 506.9 485.431 508.5 489.231 510C494.031 512 498.931 514 503.731 516C504.631 518.9 505.731 521.6 506.831 524.2C505.331 524.3 503.831 524.5 502.331 524.9C499.431 525.6 496.731 526.9 494.331 528.6C491.931 530.3 489.831 532.5 488.231 535C486.631 537.5 485.331 540.3 485.131 543.3C485.031 544.1 485.131 544.8 485.431 545.6C485.631 545.9 485.831 546.3 486.131 546.6C486.431 546.9 486.831 547.1 487.231 547.2C487.831 547.4 488.331 547.5 488.931 547.6C492.031 549.3 501.731 546.8 509.331 544.4C508.831 545 508.331 545.7 508.131 546.5C508.031 546.9 507.931 547.3 508.131 547.9C508.231 548.2 508.531 548.4 508.831 548.5C509.131 548.5 509.431 548.5 509.631 548.5C510.031 548.5 510.331 548.4 510.731 548.3C510.731 549 511.231 549.2 511.931 549.1L510.831 552.5L510.931 553L513.331 556L513.931 556.1L514.931 555.4L515.931 556.7L520.231 553.7C520.231 553.7 523.231 549.4 524.931 545.2C525.331 545.4 525.631 545.6 526.031 545.7L524.931 596.6L525.431 597.1H527.631V597.7H541.931C541.631 597.6 541.331 597.4 540.931 597.1C541.031 597.1 541.131 597 541.131 597L540.831 596.1H539.831C539.731 596.1 539.731 596 539.631 596C538.531 595 537.631 593.9 537.631 593.9C532.731 589.9 536.331 557.2 537.331 548.4C540.431 548.7 544.131 548.8 547.931 548.6L549.331 596.7L549.831 597.2C550.531 597.2 551.231 597.2 552.031 597.1V597.8C552.031 597.8 561.231 597.5 562.031 597.8C562.031 597.8 559.331 595.3 556.331 591C553.331 586.7 562.031 546.3 562.031 546.3L561.231 546.5C569.431 544.1 576.531 539.3 578.831 530.7C579.531 531.6 580.231 532.5 580.931 533.4C582.331 535 583.831 536.6 585.431 538C587.131 539.4 588.831 540.7 590.831 541.6C591.631 542 592.631 542.3 593.531 542.4C595.531 543.2 597.631 543.4 599.331 542.5C603.431 541.1 602.631 520.8 602.631 520.8L622.631 515.1C622.631 515.1 621.931 514.7 620.831 514.2V513.8C619.231 512.9 617.531 512.3 615.731 511.9C613.931 511.5 612.131 511.3 610.331 511.3C608.531 511.4 606.731 511.5 604.931 512C604.131 512.2 603.331 512.5 602.531 512.7C602.831 510.8 602.731 508.4 600.831 508.6C600.831 508.6 600.831 508.6 600.831 508.7C600.831 508.6 600.731 508.5 600.731 508.4C600.631 508.2 600.531 508.1 600.431 507.9C600.231 507.8 600.131 507.6 599.931 507.5C599.731 507.4 599.531 507.3 599.331 507.3C599.131 507.3 598.931 507.3 598.731 507.3L598.331 507.7L596.731 521.8C596.431 524.1 596.231 526.5 595.931 528.8C595.731 529.9 595.631 531.1 595.331 532.2C595.031 533.3 594.631 534.5 593.931 535.3C593.631 535.7 593.131 536 592.631 536C592.331 536 592.031 535.9 591.731 535.8C589.031 533.6 585.231 528.5 579.831 518.6L611.231 498.5C611.531 498.6 611.831 498.7 612.131 498.8C612.731 499 613.231 499.2 613.831 499.3C616.231 500.2 619.631 501.2 619.831 500.5C620.131 499.5 617.631 497.8 616.831 497.3C616.731 497.2 616.731 497.2 616.631 497.1C617.431 497.1 622.931 497.3 622.931 495.6C622.931 494.7 622.031 494.4 621.131 494.4V494.3C621.131 494 620.931 493.7 620.731 493.5C621.831 492.1 624.131 490.4 623.331 489.7ZM509.631 474.7C509.231 474.2 508.931 473.8 508.531 473.3C514.631 468 522.631 464.3 530.531 462C530.931 462.3 531.331 462.6 531.731 462.9C523.731 465.3 515.631 469.1 509.631 474.7ZM506.931 528.8C508.231 531 509.831 533.2 511.531 535.3L512.331 534.7C510.631 532.6 509.131 530.5 507.831 528.4C508.131 528.3 508.331 528.2 508.531 528.1C510.131 531 511.831 533.5 513.731 535.8C513.431 535.9 513.031 535.9 512.731 536C509.731 536.6 506.731 537.5 503.831 538.3C502.331 538.7 500.931 539.1 499.431 539.5C498.131 539.9 496.731 540.2 495.331 540.3C493.731 535.8 500.731 531.6 506.931 528.8ZM495.731 541C495.731 541 495.731 540.9 495.631 540.9C497.031 540.8 498.431 540.5 499.831 540.2C501.331 539.9 502.731 539.5 504.231 539.1C507.131 538.3 510.031 537.5 513.031 536.9C513.531 536.8 514.031 536.7 514.531 536.6C514.731 536.9 514.931 537.1 515.231 537.4C507.031 539.1 496.831 542.9 495.731 541ZM619.431 489.1C619.931 489 620.531 488.9 620.731 489C620.831 488.9 620.731 489 620.731 489.1C620.731 489.3 620.531 489.5 620.331 489.7C619.931 490.1 619.531 490.5 619.031 490.8C618.431 491.3 617.731 491.7 617.131 492.1C617.531 491.6 618.631 490.3 619.431 489.1ZM612.731 488.1C613.831 487.3 614.931 486.6 616.131 486.2C616.731 486 617.431 486.1 617.331 486.3C617.431 486.4 617.331 486.7 617.231 487V487.1C614.631 488.3 611.431 491.2 611.431 491.2C611.431 490.7 611.331 490 611.131 489.3C611.631 488.9 612.131 488.5 612.731 488.1ZM606.931 494.3L607.131 493.9C607.031 492.6 606.931 491.3 606.831 490C606.731 488.7 606.631 487.4 606.731 486.1C606.731 485.8 606.731 485.4 606.831 485.2C606.831 485.2 606.831 485.2 606.831 485.1C606.831 485.1 606.931 485.1 606.931 485.2C607.331 485.5 607.631 486.1 607.931 486.6C608.031 486.8 608.131 487.1 608.231 487.3C608.131 490 608.731 494.8 608.731 494.8L576.731 510.3V510.5C576.531 509.9 576.331 509.3 576.131 508.7L575.431 510.7C575.231 510.2 575.131 509.6 574.931 509C585.531 504.2 596.031 499.1 606.931 494.3ZM573.931 509.2C574.331 510.3 574.631 511.3 574.831 512.3L572.831 518.2L571.731 515.6L573.931 509.2ZM564.931 505.1L566.431 508.6L565.231 521.8L563.531 520.6L564.931 505.1ZM557.031 517L558.631 518.2L554.431 527.3L553.231 525.2L557.031 517ZM549.431 522.1L550.731 524.5L550.031 526.9L548.631 524.9L549.431 522.1ZM540.531 528.7L541.931 518.5L543.431 520.7L542.131 529.6C542.131 529.6 541.431 529.4 540.231 528.8L540.531 528.7ZM552.431 507.6C553.631 506.7 554.731 506.2 555.531 506C555.431 506.2 555.231 506.4 555.031 506.6C554.431 506.9 553.831 507.2 553.131 507.8C552.631 508.2 552.131 508.2 551.631 508C552.031 507.9 552.231 507.8 552.431 507.6ZM545.831 507.3C546.231 506 546.631 505.7 546.831 505.6C547.031 505.5 547.231 505.6 547.531 505.8C547.131 506.1 546.831 506.6 546.531 507.6C545.531 510.9 544.431 511.4 542.331 511.2C543.831 511.2 544.931 510.3 545.831 507.3ZM532.331 511.8C533.231 511 534.231 510.6 535.531 510.7C535.631 510.7 535.731 510.7 535.831 510.7C531.631 511.1 530.531 516.5 530.331 518.8C530.131 518.5 529.931 518.1 529.831 517.8C530.031 516.1 530.631 513.4 532.331 511.8ZM531.431 502.5L527.831 493.2C527.931 492.5 528.131 491.8 528.231 491.1L531.731 500.1L531.431 502.5ZM540.231 498.5L535.531 492.1L535.631 491.1L540.131 497.3L540.231 498.5ZM554.331 501.6L542.731 492.5V492.4L554.231 501.4L554.331 501.6ZM551.631 459.4C552.631 459.5 553.631 459.8 554.631 460.1C554.331 460.1 554.131 460 553.831 460C548.631 459.5 540.831 460.2 532.731 462.5C532.331 462.2 532.031 461.9 531.631 461.6C539.331 459.6 546.631 458.9 551.631 459.4ZM505.731 470C502.431 466.5 499.331 463.8 496.231 462C498.231 458.2 500.831 455.7 504.031 454.3C512.431 450.8 523.131 456.7 529.531 461.2C521.731 463.5 513.931 467.2 507.931 472.4C507.231 471.7 506.431 470.8 505.731 470ZM498.331 497.1C497.631 488.6 500.431 481.1 506.831 474.8C507.131 474.5 507.431 474.2 507.731 474C508.131 474.5 508.531 475 508.831 475.4C502.931 481.2 499.131 488.7 499.931 498.2C500.231 502.1 500.831 505.7 501.531 509.1C501.331 509 501.131 509 501.031 508.9C500.331 508.6 499.731 508.3 499.031 508L499.831 507.8C499.131 503.8 498.631 500.4 498.331 497.1ZM485.731 503.5C476.131 500.5 467.731 498.4 467.731 498.4C473.731 499.9 479.731 501.6 485.731 503.5ZM460.731 491.7C460.831 491.5 461.331 491.8 461.731 492.2C461.831 492.3 461.931 492.5 462.131 492.6C461.531 493.8 462.631 497.1 462.631 497.1C462.631 497.1 461.931 496.7 460.931 496.2L461.131 496C460.831 494.9 460.531 493.8 460.431 492.8C460.431 492.3 460.531 491.7 460.731 491.7ZM452.531 494.4C452.431 494.1 452.531 493.9 452.731 493.8C452.931 493.7 453.331 493.7 453.731 493.7C454.431 493.8 455.231 494 456.031 494.3C455.031 494.1 454.231 494.2 453.931 494.9C453.831 495.2 453.931 495.6 454.131 496C454.131 496 454.031 496 454.031 495.9C453.431 495.5 452.731 494.9 452.531 494.4ZM452.931 501.2C453.231 500.8 453.931 500.5 454.531 500.3C455.131 500.1 455.831 500 456.531 499.9C457.831 499.8 459.131 499.7 460.431 499.8C460.531 499.8 460.631 499.8 460.731 499.8V499.7C461.831 500.1 462.631 500.3 462.631 500.3C462.631 500.3 454.931 499.8 454.031 502.4C453.531 502.4 452.931 502.4 452.731 502.3C452.531 502.3 452.531 501.6 452.931 501.2ZM452.731 505.6C452.631 505.5 452.631 505.5 452.731 505.6C452.631 505.5 452.631 505.3 452.631 505.2C452.731 505 452.731 504.9 452.831 504.8C453.131 504.4 453.731 504 454.231 503.7C454.831 504.1 456.131 503.9 457.431 503.6C456.331 504.1 455.131 504.6 454.431 505.3C454.031 505.4 453.531 505.5 453.131 505.5C453.031 505.6 452.831 505.6 452.731 505.6ZM460.531 507.8C460.231 508 459.931 508.2 459.731 508.3C459.431 508.3 459.531 508.3 459.431 508.1C459.231 507.6 459.331 507 459.631 506.4C459.731 506.2 459.931 506 460.031 505.8C462.031 505 463.731 504.1 463.731 504.1C463.731 504.1 462.131 505.5 461.331 507.1C461.031 507.4 460.831 507.6 460.531 507.8ZM485.531 543.2C485.731 540.3 486.931 537.5 488.431 535.1C490.031 532.6 492.031 530.4 494.331 528.7C496.631 527 499.331 525.7 502.131 524.9C503.531 524.5 505.031 524.2 506.531 524.1C506.731 524.5 506.931 524.9 507.131 525.3C491.631 527.3 485.231 542.7 487.831 546.7C487.631 546.7 487.331 546.6 487.131 546.5C485.831 546.1 485.531 544.6 485.531 543.2ZM509.131 547.6C509.031 547.6 508.931 547.6 508.831 547.6C508.731 547.6 508.731 547.6 508.731 547.5C508.631 547.4 508.631 547 508.731 546.7C508.931 546.1 509.331 545.5 509.731 545C510.231 544.4 510.831 543.9 511.531 543.4C515.231 542.2 518.131 541.1 518.731 540.9C517.731 541.3 511.531 544.1 510.431 547.2C510.031 547.3 509.531 547.5 509.131 547.6ZM513.431 555.1L511.531 552.7L513.031 548.4C514.231 547.8 515.431 547 515.431 547L513.231 553.5L514.231 554.7L513.431 555.1ZM525.431 595.8L526.531 545.9C527.131 546.1 527.631 546.4 528.231 546.6L527.131 595.9H525.431V595.8ZM549.831 595.8L548.431 548.2C549.231 548.1 550.031 548.1 550.831 548L550.031 548.1L551.431 595.7C550.831 595.8 550.231 595.8 549.831 595.8ZM585.231 537.1C583.631 535.8 582.131 534.3 580.631 532.7C579.831 531.8 579.131 531 578.331 530.1C578.431 529.7 578.531 529.3 578.631 528.9C578.831 529.2 583.531 535.7 588.931 539.7C587.631 539 586.331 538 585.231 537.1ZM602.031 513.2C602.831 513 603.631 512.7 604.531 512.5C606.231 512 608.031 511.9 609.731 511.8C611.531 511.7 613.231 511.9 614.931 512.3C615.331 512.4 615.831 512.5 616.231 512.7C612.531 512 607.431 512.1 601.531 514.7C601.531 514.7 601.731 514.1 601.831 513.3C601.931 513.2 601.931 513.2 602.031 513.2ZM592.231 536.1C592.831 536 593.531 535.7 593.931 535.2C594.831 534.2 595.231 533.1 595.531 531.9C595.831 530.7 596.031 529.6 596.231 528.4C596.531 526.1 596.831 523.7 597.131 521.4L598.731 507.7C599.131 507.7 599.331 507.9 599.431 508.3C599.631 508.8 599.631 509.4 599.631 510C599.631 511.2 599.331 512.4 599.031 513.6L599.631 514.2H599.731C599.231 519.1 598.531 525.7 598.031 528.8C597.531 532.1 596.731 539 592.231 536.1ZM619.531 493.8C619.631 493.9 619.731 494 619.731 494.1C619.131 494.1 618.631 494.2 618.631 494.2C618.631 494.2 618.931 494 619.431 493.7C619.431 493.8 619.531 493.8 619.531 493.8Z" fill="#DC3545"/>
<path opacity="0.6" d="M504.831 522.6C503.631 519.9 502.731 517.7 502.031 515.6L501.031 515.9C501.731 518.1 502.631 520.4 503.831 523.1L504.831 522.6Z" fill="#DC3545"/>
<g opacity="0.6">
<path opacity="0.6" d="M524.331 582.9H534.831C534.831 582.9 534.831 595.6 542.831 596V598.3L524.331 598.2V582.9Z" fill="#F2DDA4"/>
<path opacity="0.6" d="M546.831 581.7H555.831C555.831 581.7 553.331 590.9 562.931 596.4V598.2H546.031L546.831 581.7Z" fill="#F2DDA4"/>
</g>
<path d="M654.231 579.6C654.131 579.5 654.131 579.4 654.031 579.4C653.231 578.5 652.231 578 651.131 577.7C650.531 573.7 647.931 563.2 637.931 557.2C637.131 556.6 636.231 556 635.331 555.4C637.831 554.4 639.731 554.1 641.131 554.2C642.031 554.8 642.331 555.6 642.331 555.6L642.731 555.5H643.231C643.231 555.2 643.231 555 643.331 554.7C644.931 555.4 645.431 556.7 645.431 556.8C645.631 551.9 648.131 551 650.531 551.3C651.431 551.7 652.031 552 652.031 552.1L652.331 551.8C653.831 552.3 654.931 553 654.931 553C648.131 542.6 663.831 541.5 663.831 541.5C662.331 541.6 660.731 541.4 659.031 541H659.131C659.831 541 660.531 540.9 661.231 540.7L661.031 539.7C660.931 539.7 660.131 539.8 658.931 540C657.031 540.1 655.031 539.6 653.131 538.9C648.731 536.9 645.231 534.6 645.231 534.6V534.7C643.731 533.7 642.831 532.9 642.831 532.9L642.031 533.4C644.531 547.4 633.831 553.1 632.031 553.9C628.231 552.2 623.631 551.2 618.031 551.1C604.231 550.9 593.331 553.2 585.531 557.7C585.231 557.6 584.131 557 582.731 556.1C579.231 553.2 575.331 548.3 575.631 541.2C575.631 541.2 574.931 542 573.731 542.9C573.631 542 573.531 541 573.531 539.9L572.631 539.6C572.431 539.8 567.631 545.3 560.831 543C560.431 542.8 560.131 542.7 560.031 542.7L559.731 543.6C559.931 543.7 560.131 543.8 560.431 543.9C562.731 544.8 570.431 548.3 568.931 553.7L569.731 554.2C570.131 553.8 571.131 553.2 572.131 552.9C572.231 553.6 572.231 554.3 572.031 555.1C572.031 555.1 573.531 553.9 575.131 553.6C575.831 554.5 576.231 556.1 576.231 558.3L577.231 558.5C577.231 558.5 577.631 557.6 579.231 557.4C579.331 558 579.431 558.8 579.431 559.6C579.531 559.6 580.331 557.6 584.231 558.3C584.331 558.3 584.431 558.4 584.531 558.4C576.031 563.8 571.431 572.2 571.031 583.3C569.831 583.6 567.031 584.6 565.131 587.1C562.931 589.9 562.431 593.7 563.731 598.4L564.231 598.8L566.731 598.7C566.831 599 566.831 599.3 566.931 599.6L658.831 596.5C658.831 596.3 660.931 582.1 654.231 579.6ZM652.331 579.3C652.031 579.3 651.731 579.3 651.331 579.3C651.331 579.3 651.331 579.1 651.331 578.8C651.631 578.9 652.031 579.1 652.331 579.3ZM638.831 549.8C641.431 546.8 644.331 541.7 643.331 534.3C643.931 534.7 644.631 535.3 645.531 535.9C646.531 544.2 642.831 549.5 639.431 552.5C639.031 552.4 638.631 552.4 638.131 552.4C637.431 552.4 636.731 552.5 635.831 552.6C636.831 551.9 637.831 551 638.831 549.8ZM638.431 553.4C637.131 554.4 635.931 555.1 635.331 555.4C634.731 555 634.131 554.7 633.431 554.4C635.531 553.6 637.231 553.3 638.431 553.4ZM564.131 544.3C568.131 544.3 571.131 542.1 572.631 540.8C572.631 541.6 572.731 542.5 572.931 543.2C571.131 544.3 568.431 545.4 565.331 544.9C564.931 544.8 564.531 544.6 564.131 544.3ZM570.231 552.5C570.431 550.1 569.131 548.1 567.331 546.6C569.331 547.8 571.331 549.6 572.031 551.7C571.331 551.9 570.731 552.2 570.231 552.5ZM578.031 556.4C577.731 556.5 577.431 556.7 577.231 556.8C577.131 555.3 576.831 554.2 576.331 553.3C577.431 553.4 578.431 554.1 579.031 556.1C578.731 556.2 578.331 556.3 578.031 556.4ZM564.631 597.6C563.731 593.7 564.031 590.5 565.631 588.1C567.831 584.8 571.731 584 571.631 584L572.131 583.5C572.431 572 576.931 563.6 585.831 558.4C586.531 558.6 587.331 558.9 588.131 559.3C588.131 559.3 587.331 559 586.131 558.2C593.431 554 603.531 551.9 616.431 551.9C617.031 551.9 617.531 551.9 618.131 551.9C622.531 552 626.231 552.7 629.431 553.8C626.831 553.2 624.031 552.8 620.831 552.7C591.831 552.3 574.831 562.4 574.331 584.8C574.231 584.8 564.631 586.6 566.531 597.5L564.631 597.6Z" fill="#DC3545"/>
<g opacity="0.6">
<path opacity="0.6" d="M594.731 556.3C594.731 556.3 613.831 561.8 622.131 554.2L616.731 521.7L584.331 523.7C584.331 523.7 579.131 538.1 601.531 536.5L594.731 556.3Z" fill="#F2DDA4"/>
</g>
</svg>
